# MagicaVoxel @ Ephtracy

# group
o 

# material
mtllib church.mtl
usemtl palette

# normals
vn -1 0 0
vn 1 0 0
vn 0 0 1
vn 0 0 -1
vn 0 -1 0
vn 0 1 0

# texcoords
vt 0.0332031 0.5
vt 0.373047 0.5
vt 0.751953 0.5
vt 0.958984 0.5

# verts
v -0.7 0 1.3
v -0.7 0 -1.3
v -0.7 1.1 1.1
v -0.7 1.1 0.9
v -0.7 1.1 0.7
v -0.7 1.1 0.5
v -0.7 1.1 0.3
v -0.7 1.1 0.1
v -0.7 1.1 -0.0999999
v -0.7 1.1 -0.3
v -0.7 1.1 -0.5
v -0.7 1.1 -0.7
v -0.7 1.1 -0.9
v -0.7 1.1 -1.1
v -0.7 1.5 1.1
v -0.7 1.5 0.9
v -0.7 1.5 0.7
v -0.7 1.5 0.5
v -0.7 1.5 0.3
v -0.7 1.5 0.1
v -0.7 1.5 -0.0999999
v -0.7 1.5 -0.3
v -0.7 1.5 -0.5
v -0.7 1.5 -0.7
v -0.7 1.5 -0.9
v -0.7 1.5 -1.1
v -0.7 1.7 1.3
v -0.7 1.7 -1.3
v -0.7 1.8 1.3
v -0.7 1.8 -1.3
v -0.6 1.8 1.3
v -0.6 1.8 -1.3
v -0.6 1.9 1.3
v -0.6 1.9 -1.3
v -0.5 1.9 1.3
v -0.5 1.9 -1.3
v -0.5 2 1.3
v -0.5 2 -1.3
v -0.4 2 1.3
v -0.4 2 -1.3
v -0.4 2.1 1.3
v -0.4 2.1 -1.3
v -0.3 2.1 1.3
v -0.3 2.1 -1.3
v -0.3 2.2 1.3
v -0.3 2.2 1
v -0.3 2.2 0.4
v -0.3 2.2 -1.3
v -0.3 2.8 0.8
v -0.3 2.8 0.6
v -0.3 3.1 0.8
v -0.3 3.1 0.6
v -0.3 3.2 1
v -0.3 3.2 0.4
v -0.3 3.3 1
v -0.3 3.3 0.4
v -0.3 4 0.8
v -0.3 4 0.6
v -0.3 4.2 0.8
v -0.3 4.2 0.6
v -0.2 2.2 1.3
v -0.2 2.2 1
v -0.2 2.2 0.4
v -0.2 2.2 -1.3
v -0.2 2.3 1.3
v -0.2 2.3 1
v -0.2 2.3 0.4
v -0.2 2.3 -1.3
v -0.2 3.3 0.9
v -0.2 3.3 0.5
v -0.2 3.4 0.9
v -0.2 3.4 0.5
v -0.1 2.3 1.3
v -0.1 2.3 1
v -0.1 2.3 0.4
v -0.1 2.3 -1.3
v -0.1 2.4 1.3
v -0.1 2.4 1
v -0.1 2.4 0.4
v -0.1 2.4 -1.3
v -0.1 3.4 0.8
v -0.1 3.4 0.6
v -0.1 3.5 0.8
v -0.1 3.5 0.6
v -0.1 4 0.8
v -0.1 4 0.6
v -0.1 4.2 0.8
v -0.1 4.2 0.6
v -0.1 4.4 0.8
v -0.1 4.4 0.6
v 0.5 0 -0.9
v 0.5 0 -1.1
v 0.5 0.1 -0.9
v 0.5 0.1 -1.1
v 0.1 2.3 1.3
v 0.1 2.3 1
v 0.1 2.3 0.4
v 0.1 2.3 -1.3
v 0.1 2.4 1.3
v 0.1 2.4 1
v 0.1 2.4 0.4
v 0.1 2.4 -1.3
v 0.1 3.4 0.8
v 0.1 3.4 0.6
v 0.1 3.5 0.8
v 0.1 3.5 0.6
v 0.1 4 0.8
v 0.1 4 0.6
v 0.1 4.2 0.8
v 0.1 4.2 0.6
v 0.1 4.4 0.8
v 0.1 4.4 0.6
v 0.2 2.2 1.3
v 0.2 2.2 1
v 0.2 2.2 0.4
v 0.2 2.2 -1.3
v 0.2 2.3 1.3
v 0.2 2.3 1
v 0.2 2.3 0.4
v 0.2 2.3 -1.3
v 0.2 3.3 0.9
v 0.2 3.3 0.5
v 0.2 3.4 0.9
v 0.2 3.4 0.5
v 0.3 0 -0.9
v 0.3 0 -1.1
v 0.3 0.1 -0.9
v 0.3 0.1 -1.1
v 0.3 2.1 1.3
v 0.3 2.1 -1.3
v 0.3 2.2 1.3
v 0.3 2.2 1
v 0.3 2.2 0.4
v 0.3 2.2 -1.3
v 0.3 2.8 0.8
v 0.3 2.8 0.6
v 0.3 3.1 0.8
v 0.3 3.1 0.6
v 0.3 3.2 1
v 0.3 3.2 0.4
v 0.3 3.3 1
v 0.3 3.3 0.4
v 0.3 4 0.8
v 0.3 4 0.6
v 0.3 4.2 0.8
v 0.3 4.2 0.6
v 0.4 2 1.3
v 0.4 2 -1.3
v 0.4 2.1 1.3
v 0.4 2.1 -1.3
v 0.5 1.9 1.3
v 0.5 1.9 -1.3
v 0.5 2 1.3
v 0.5 2 -1.3
v 0.6 1.8 1.3
v 0.6 1.8 -1.3
v 0.6 1.9 1.3
v 0.6 1.9 -1.3
v 0.7 0 1.3
v 0.7 0 -1.3
v 0.7 1.1 1.1
v 0.7 1.1 0.9
v 0.7 1.1 0.7
v 0.7 1.1 0.5
v 0.7 1.1 0.3
v 0.7 1.1 0.1
v 0.7 1.1 -0.0999999
v 0.7 1.1 -0.3
v 0.7 1.1 -0.5
v 0.7 1.1 -0.7
v 0.7 1.1 -0.9
v 0.7 1.1 -1.1
v 0.7 1.5 1.1
v 0.7 1.5 0.9
v 0.7 1.5 0.7
v 0.7 1.5 0.5
v 0.7 1.5 0.3
v 0.7 1.5 0.1
v 0.7 1.5 -0.0999999
v 0.7 1.5 -0.3
v 0.7 1.5 -0.5
v 0.7 1.5 -0.7
v 0.7 1.5 -0.9
v 0.7 1.5 -1.1
v 0.7 1.7 1.3
v 0.7 1.7 -1.3
v 0.7 1.8 1.3
v 0.7 1.8 -1.3
v -0.7 0 1.3
v -0.7 1.7 1.3
v -0.7 1.8 1.3
v -0.6 1.7 1.3
v -0.6 1.8 1.3
v -0.6 1.9 1.3
v -0.5 1.8 1.3
v -0.5 1.9 1.3
v -0.5 2 1.3
v -0.4 1.9 1.3
v -0.4 2 1.3
v -0.4 2.1 1.3
v -0.3 0 1.3
v -0.3 0.5 1.3
v -0.3 2 1.3
v -0.3 2.1 1.3
v -0.3 2.2 1.3
v -0.2 0.2 1.3
v -0.2 0.4 1.3
v -0.2 0.5 1.3
v -0.2 0.8 1.3
v -0.2 1.7 1.3
v -0.2 1.9 1.3
v -0.2 2.1 1.3
v -0.2 2.2 1.3
v -0.2 2.3 1.3
v -0.1 0.2 1.3
v -0.1 0.4 1.3
v -0.1 0.8 1.3
v -0.1 0.9 1.3
v -0.1 1.6 1.3
v -0.1 1.7 1.3
v -0.1 1.9 1.3
v -0.1 2 1.3
v -0.1 2.2 1.3
v -0.1 2.3 1.3
v -0.1 2.4 1.3
v 0.1 0.8 1.3
v 0.1 0.9 1.3
v 0.1 1.6 1.3
v 0.1 1.7 1.3
v 0.1 1.9 1.3
v 0.1 2 1.3
v 0.1 2.2 1.3
v 0.1 2.3 1.3
v 0.1 2.4 1.3
v 0.2 0.5 1.3
v 0.2 0.8 1.3
v 0.2 1.7 1.3
v 0.2 1.9 1.3
v 0.2 2.1 1.3
v 0.2 2.2 1.3
v 0.2 2.3 1.3
v 0.3 0 1.3
v 0.3 0.5 1.3
v 0.3 2 1.3
v 0.3 2.1 1.3
v 0.3 2.2 1.3
v 0.4 1.9 1.3
v 0.4 2 1.3
v 0.4 2.1 1.3
v 0.5 1.8 1.3
v 0.5 1.9 1.3
v 0.5 2 1.3
v 0.6 1.7 1.3
v 0.6 1.8 1.3
v 0.6 1.9 1.3
v 0.7 0 1.3
v 0.7 1.7 1.3
v 0.7 1.8 1.3
v -0.3 2.2 1
v -0.3 3.2 1
v -0.3 3.3 1
v -0.2 2.2 1
v -0.2 2.3 1
v -0.1 2.3 1
v -0.1 2.4 1
v -0.1 2.8 1
v -0.1 3.1 1
v 0.1 2.3 1
v 0.1 2.4 1
v 0.1 2.8 1
v 0.1 3.1 1
v 0.2 2.2 1
v 0.2 2.3 1
v 0.3 2.2 1
v 0.3 3.2 1
v 0.3 3.3 1
v -0.2 3.3 0.9
v -0.2 3.4 0.9
v 0.2 3.3 0.9
v 0.2 3.4 0.9
v -0.3 4 0.8
v -0.3 4.2 0.8
v -0.1 3.4 0.8
v -0.1 3.5 0.8
v -0.1 4 0.8
v -0.1 4.2 0.8
v -0.1 4.4 0.8
v 0.1 3.4 0.8
v 0.1 3.5 0.8
v 0.1 4 0.8
v 0.1 4.2 0.8
v 0.1 4.4 0.8
v 0.3 4 0.8
v 0.3 4.2 0.8
v 0.3 0 -1.1
v 0.3 0.1 -1.1
v 0.5 0 -1.1
v 0.5 0.1 -1.1
v -0.3 4 0.6
v -0.3 4.2 0.6
v -0.1 3.4 0.6
v -0.1 3.5 0.6
v -0.1 4 0.6
v -0.1 4.2 0.6
v -0.1 4.4 0.6
v 0.1 3.4 0.6
v 0.1 3.5 0.6
v 0.1 4 0.6
v 0.1 4.2 0.6
v 0.1 4.4 0.6
v 0.3 4 0.6
v 0.3 4.2 0.6
v -0.2 3.3 0.5
v -0.2 3.4 0.5
v 0.2 3.3 0.5
v 0.2 3.4 0.5
v -0.3 2.2 0.4
v -0.3 3.2 0.4
v -0.3 3.3 0.4
v -0.2 2.2 0.4
v -0.2 2.3 0.4
v -0.1 2.3 0.4
v -0.1 2.4 0.4
v -0.1 2.8 0.4
v -0.1 3.1 0.4
v 0.1 2.3 0.4
v 0.1 2.4 0.4
v 0.1 2.8 0.4
v 0.1 3.1 0.4
v 0.2 2.2 0.4
v 0.2 2.3 0.4
v 0.3 2.2 0.4
v 0.3 3.2 0.4
v 0.3 3.3 0.4
v 0.3 0 -0.9
v 0.3 0.1 -0.9
v 0.5 0 -0.9
v 0.5 0.1 -0.9
v -0.7 0 -1.3
v -0.7 1.7 -1.3
v -0.7 1.8 -1.3
v -0.6 1.7 -1.3
v -0.6 1.8 -1.3
v -0.6 1.9 -1.3
v -0.5 1.8 -1.3
v -0.5 1.9 -1.3
v -0.5 2 -1.3
v -0.4 1.9 -1.3
v -0.4 2 -1.3
v -0.4 2.1 -1.3
v -0.3 2 -1.3
v -0.3 2.1 -1.3
v -0.3 2.2 -1.3
v -0.2 2.1 -1.3
v -0.2 2.2 -1.3
v -0.2 2.3 -1.3
v -0.1 2.2 -1.3
v -0.1 2.3 -1.3
v -0.1 2.4 -1.3
v 0.1 2.2 -1.3
v 0.1 2.3 -1.3
v 0.1 2.4 -1.3
v 0.2 2.1 -1.3
v 0.2 2.2 -1.3
v 0.2 2.3 -1.3
v 0.3 2 -1.3
v 0.3 2.1 -1.3
v 0.3 2.2 -1.3
v 0.4 1.9 -1.3
v 0.4 2 -1.3
v 0.4 2.1 -1.3
v 0.5 1.8 -1.3
v 0.5 1.9 -1.3
v 0.5 2 -1.3
v 0.6 1.7 -1.3
v 0.6 1.8 -1.3
v 0.6 1.9 -1.3
v 0.7 0 -1.3
v 0.7 1.7 -1.3
v 0.7 1.8 -1.3
v -0.7 0 1.3
v -0.3 0 1.3
v 0.3 0 1.3
v 0.7 0 1.3
v -0.3 0 1.2
v 0.3 0 1.2
v 0.3 0 -0.9
v 0.5 0 -0.9
v 0.3 0 -1.1
v 0.5 0 -1.1
v -0.7 0 -1.3
v 0.7 0 -1.3
v 0.3 0.1 -0.9
v 0.5 0.1 -0.9
v 0.3 0.1 -1.1
v 0.5 0.1 -1.1
v -0.3 4 0.8
v -0.1 4 0.8
v 0.1 4 0.8
v 0.3 4 0.8
v -0.3 4 0.6
v -0.1 4 0.6
v 0.1 4 0.6
v 0.3 4 0.6
v -0.7 1.8 1.3
v -0.6 1.8 1.3
v 0.6 1.8 1.3
v 0.7 1.8 1.3
v -0.7 1.8 -1.3
v -0.6 1.8 -1.3
v 0.6 1.8 -1.3
v 0.7 1.8 -1.3
v -0.6 1.9 1.3
v -0.5 1.9 1.3
v 0.5 1.9 1.3
v 0.6 1.9 1.3
v -0.6 1.9 -1.3
v -0.5 1.9 -1.3
v 0.5 1.9 -1.3
v 0.6 1.9 -1.3
v -0.5 2 1.3
v -0.4 2 1.3
v 0.4 2 1.3
v 0.5 2 1.3
v -0.5 2 -1.3
v -0.4 2 -1.3
v 0.4 2 -1.3
v 0.5 2 -1.3
v -0.4 2.1 1.3
v -0.3 2.1 1.3
v 0.3 2.1 1.3
v 0.4 2.1 1.3
v -0.4 2.1 -1.3
v -0.3 2.1 -1.3
v 0.3 2.1 -1.3
v 0.4 2.1 -1.3
v -0.3 2.2 1.3
v -0.2 2.2 1.3
v 0.2 2.2 1.3
v 0.3 2.2 1.3
v -0.3 2.2 1
v -0.2 2.2 1
v 0.2 2.2 1
v 0.3 2.2 1
v -0.3 2.2 0.4
v -0.2 2.2 0.4
v 0.2 2.2 0.4
v 0.3 2.2 0.4
v -0.3 2.2 -1.3
v -0.2 2.2 -1.3
v 0.2 2.2 -1.3
v 0.3 2.2 -1.3
v -0.2 2.3 1.3
v -0.1 2.3 1.3
v 0.1 2.3 1.3
v 0.2 2.3 1.3
v -0.2 2.3 1
v -0.1 2.3 1
v 0.1 2.3 1
v 0.2 2.3 1
v -0.2 2.3 0.4
v -0.1 2.3 0.4
v 0.1 2.3 0.4
v 0.2 2.3 0.4
v -0.2 2.3 -1.3
v -0.1 2.3 -1.3
v 0.1 2.3 -1.3
v 0.2 2.3 -1.3
v -0.1 2.4 1.3
v 0.1 2.4 1.3
v -0.1 2.4 1
v 0.1 2.4 1
v -0.1 2.4 0.4
v 0.1 2.4 0.4
v -0.1 2.4 -1.3
v 0.1 2.4 -1.3
v -0.3 3.3 1
v 0.3 3.3 1
v -0.2 3.3 0.9
v 0.2 3.3 0.9
v -0.2 3.3 0.5
v 0.2 3.3 0.5
v -0.3 3.3 0.4
v 0.3 3.3 0.4
v -0.2 3.4 0.9
v 0.2 3.4 0.9
v -0.1 3.4 0.8
v 0.1 3.4 0.8
v -0.1 3.4 0.6
v 0.1 3.4 0.6
v -0.2 3.4 0.5
v 0.2 3.4 0.5
v -0.3 4.2 0.8
v -0.1 4.2 0.8
v 0.1 4.2 0.8
v 0.3 4.2 0.8
v -0.3 4.2 0.6
v -0.1 4.2 0.6
v 0.1 4.2 0.6
v 0.3 4.2 0.6
v -0.1 4.4 0.8
v 0.1 4.4 0.8
v -0.1 4.4 0.6
v 0.1 4.4 0.6

# faces
f 3/1/1 2/1/1 1/1/1
f 4/1/1 2/1/1 3/1/1
f 5/1/1 2/1/1 4/1/1
f 6/1/1 2/1/1 5/1/1
f 7/1/1 2/1/1 6/1/1
f 8/1/1 2/1/1 7/1/1
f 9/1/1 2/1/1 8/1/1
f 10/1/1 2/1/1 9/1/1
f 11/1/1 2/1/1 10/1/1
f 12/1/1 2/1/1 11/1/1
f 13/1/1 2/1/1 12/1/1
f 14/1/1 2/1/1 13/1/1
f 15/1/1 3/1/1 1/1/1
f 15/3/1 4/3/1 3/3/1
f 16/1/1 5/1/1 4/1/1
f 16/3/1 4/3/1 15/3/1
f 17/3/1 6/3/1 5/3/1
f 17/1/1 5/1/1 16/1/1
f 18/1/1 7/1/1 6/1/1
f 18/3/1 6/3/1 17/3/1
f 19/3/1 8/3/1 7/3/1
f 19/1/1 7/1/1 18/1/1
f 20/1/1 9/1/1 8/1/1
f 20/3/1 8/3/1 19/3/1
f 21/3/1 10/3/1 9/3/1
f 21/1/1 9/1/1 20/1/1
f 22/1/1 11/1/1 10/1/1
f 22/3/1 10/3/1 21/3/1
f 23/3/1 12/3/1 11/3/1
f 23/1/1 11/1/1 22/1/1
f 24/1/1 13/1/1 12/1/1
f 24/3/1 12/3/1 23/3/1
f 25/3/1 14/3/1 13/3/1
f 25/1/1 13/1/1 24/1/1
f 26/1/1 2/1/1 14/1/1
f 26/3/1 14/3/1 25/3/1
f 27/1/1 25/1/1 24/1/1
f 27/1/1 24/1/1 23/1/1
f 27/1/1 26/1/1 25/1/1
f 27/1/1 23/1/1 22/1/1
f 27/1/1 22/1/1 21/1/1
f 27/1/1 21/1/1 20/1/1
f 27/1/1 20/1/1 19/1/1
f 27/1/1 19/1/1 18/1/1
f 27/1/1 18/1/1 17/1/1
f 27/1/1 17/1/1 16/1/1
f 27/1/1 16/1/1 15/1/1
f 27/1/1 15/1/1 1/1/1
f 28/1/1 2/1/1 26/1/1
f 28/1/1 26/1/1 27/1/1
f 29/2/1 28/2/1 27/2/1
f 30/2/1 28/2/1 29/2/1
f 33/2/1 32/2/1 31/2/1
f 34/2/1 32/2/1 33/2/1
f 37/2/1 36/2/1 35/2/1
f 38/2/1 36/2/1 37/2/1
f 41/2/1 40/2/1 39/2/1
f 42/2/1 40/2/1 41/2/1
f 45/2/1 44/2/1 43/2/1
f 46/2/1 44/2/1 45/2/1
f 47/2/1 44/2/1 46/2/1
f 48/2/1 44/2/1 47/2/1
f 49/1/1 47/1/1 46/1/1
f 50/1/1 47/1/1 49/1/1
f 51/1/1 49/1/1 46/1/1
f 51/3/1 50/3/1 49/3/1
f 52/1/1 47/1/1 50/1/1
f 52/3/1 50/3/1 51/3/1
f 53/1/1 51/1/1 46/1/1
f 53/1/1 52/1/1 51/1/1
f 54/1/1 47/1/1 52/1/1
f 54/1/1 52/1/1 53/1/1
f 55/2/1 54/2/1 53/2/1
f 56/2/1 54/2/1 55/2/1
f 59/4/1 58/4/1 57/4/1
f 60/4/1 58/4/1 59/4/1
f 65/2/1 62/2/1 61/2/1
f 66/2/1 62/2/1 65/2/1
f 67/2/1 64/2/1 63/2/1
f 68/2/1 64/2/1 67/2/1
f 71/2/1 70/2/1 69/2/1
f 72/2/1 70/2/1 71/2/1
f 77/2/1 74/2/1 73/2/1
f 78/2/1 74/2/1 77/2/1
f 79/2/1 76/2/1 75/2/1
f 80/2/1 76/2/1 79/2/1
f 83/2/1 82/2/1 81/2/1
f 84/2/1 82/2/1 83/2/1
f 85/4/1 84/4/1 83/4/1
f 86/4/1 84/4/1 85/4/1
f 89/4/1 88/4/1 87/4/1
f 90/4/1 88/4/1 89/4/1
f 93/1/1 92/1/1 91/1/1
f 94/1/1 92/1/1 93/1/1
f 95/2/2 96/2/2 99/2/2
f 99/2/2 96/2/2 100/2/2
f 97/2/2 98/2/2 101/2/2
f 101/2/2 98/2/2 102/2/2
f 103/2/2 104/2/2 105/2/2
f 105/2/2 104/2/2 106/2/2
f 105/4/2 106/4/2 107/4/2
f 107/4/2 106/4/2 108/4/2
f 109/4/2 110/4/2 111/4/2
f 111/4/2 110/4/2 112/4/2
f 113/2/2 114/2/2 117/2/2
f 117/2/2 114/2/2 118/2/2
f 115/2/2 116/2/2 119/2/2
f 119/2/2 116/2/2 120/2/2
f 121/2/2 122/2/2 123/2/2
f 123/2/2 122/2/2 124/2/2
f 125/1/2 126/1/2 127/1/2
f 127/1/2 126/1/2 128/1/2
f 129/2/2 130/2/2 131/2/2
f 131/2/2 130/2/2 132/2/2
f 132/2/2 130/2/2 133/2/2
f 133/2/2 130/2/2 134/2/2
f 132/1/2 133/1/2 135/1/2
f 135/1/2 133/1/2 136/1/2
f 132/1/2 135/1/2 137/1/2
f 135/3/2 136/3/2 137/3/2
f 136/1/2 133/1/2 138/1/2
f 137/3/2 136/3/2 138/3/2
f 132/1/2 137/1/2 139/1/2
f 137/1/2 138/1/2 139/1/2
f 138/1/2 133/1/2 140/1/2
f 139/1/2 138/1/2 140/1/2
f 139/2/2 140/2/2 141/2/2
f 141/2/2 140/2/2 142/2/2
f 143/4/2 144/4/2 145/4/2
f 145/4/2 144/4/2 146/4/2
f 147/2/2 148/2/2 149/2/2
f 149/2/2 148/2/2 150/2/2
f 151/2/2 152/2/2 153/2/2
f 153/2/2 152/2/2 154/2/2
f 155/2/2 156/2/2 157/2/2
f 157/2/2 156/2/2 158/2/2
f 159/1/2 160/1/2 161/1/2
f 161/1/2 160/1/2 162/1/2
f 162/1/2 160/1/2 163/1/2
f 163/1/2 160/1/2 164/1/2
f 164/1/2 160/1/2 165/1/2
f 165/1/2 160/1/2 166/1/2
f 166/1/2 160/1/2 167/1/2
f 167/1/2 160/1/2 168/1/2
f 168/1/2 160/1/2 169/1/2
f 169/1/2 160/1/2 170/1/2
f 170/1/2 160/1/2 171/1/2
f 171/1/2 160/1/2 172/1/2
f 159/1/2 161/1/2 173/1/2
f 161/3/2 162/3/2 173/3/2
f 162/1/2 163/1/2 174/1/2
f 173/3/2 162/3/2 174/3/2
f 163/3/2 164/3/2 175/3/2
f 174/1/2 163/1/2 175/1/2
f 164/1/2 165/1/2 176/1/2
f 175/3/2 164/3/2 176/3/2
f 165/3/2 166/3/2 177/3/2
f 176/1/2 165/1/2 177/1/2
f 166/1/2 167/1/2 178/1/2
f 177/3/2 166/3/2 178/3/2
f 167/3/2 168/3/2 179/3/2
f 178/1/2 167/1/2 179/1/2
f 168/1/2 169/1/2 180/1/2
f 179/3/2 168/3/2 180/3/2
f 169/3/2 170/3/2 181/3/2
f 180/1/2 169/1/2 181/1/2
f 170/1/2 171/1/2 182/1/2
f 181/3/2 170/3/2 182/3/2
f 171/3/2 172/3/2 183/3/2
f 182/1/2 171/1/2 183/1/2
f 172/1/2 160/1/2 184/1/2
f 183/3/2 172/3/2 184/3/2
f 182/1/2 183/1/2 185/1/2
f 181/1/2 182/1/2 185/1/2
f 183/1/2 184/1/2 185/1/2
f 180/1/2 181/1/2 185/1/2
f 179/1/2 180/1/2 185/1/2
f 178/1/2 179/1/2 185/1/2
f 177/1/2 178/1/2 185/1/2
f 176/1/2 177/1/2 185/1/2
f 175/1/2 176/1/2 185/1/2
f 174/1/2 175/1/2 185/1/2
f 173/1/2 174/1/2 185/1/2
f 159/1/2 173/1/2 185/1/2
f 184/1/2 160/1/2 186/1/2
f 185/1/2 184/1/2 186/1/2
f 185/2/2 186/2/2 187/2/2
f 187/2/2 186/2/2 188/2/2
f 192/1/3 190/1/3 189/1/3
f 192/2/3 191/2/3 190/2/3
f 193/2/3 191/2/3 192/2/3
f 195/1/3 193/1/3 192/1/3
f 195/2/3 194/2/3 193/2/3
f 196/2/3 194/2/3 195/2/3
f 198/1/3 196/1/3 195/1/3
f 198/2/3 197/2/3 196/2/3
f 199/2/3 197/2/3 198/2/3
f 201/1/3 192/1/3 189/1/3
f 201/1/3 195/1/3 192/1/3
f 201/1/3 199/1/3 198/1/3
f 201/1/3 198/1/3 195/1/3
f 202/1/3 199/1/3 201/1/3
f 203/2/3 200/2/3 199/2/3
f 203/1/3 199/1/3 202/1/3
f 204/2/3 200/2/3 203/2/3
f 206/2/3 202/2/3 201/2/3
f 207/2/3 202/2/3 206/2/3
f 208/1/3 203/1/3 202/1/3
f 208/2/3 202/2/3 207/2/3
f 208/1/3 204/1/3 203/1/3
f 209/1/3 204/1/3 208/1/3
f 210/1/3 204/1/3 209/1/3
f 211/1/3 204/1/3 210/1/3
f 212/2/3 205/2/3 204/2/3
f 212/1/3 204/1/3 211/1/3
f 213/2/3 205/2/3 212/2/3
f 215/4/3 207/4/3 206/4/3
f 215/2/3 206/2/3 201/2/3
f 216/2/3 208/2/3 207/2/3
f 216/4/3 207/4/3 215/4/3
f 216/2/3 209/2/3 208/2/3
f 217/1/3 210/1/3 209/1/3
f 217/2/3 209/2/3 216/2/3
f 218/1/3 210/1/3 217/1/3
f 219/1/3 210/1/3 218/1/3
f 220/4/3 211/4/3 210/4/3
f 220/1/3 210/1/3 219/1/3
f 221/1/3 213/1/3 212/1/3
f 221/4/3 211/4/3 220/4/3
f 221/1/3 212/1/3 211/1/3
f 222/1/3 213/1/3 221/1/3
f 223/2/3 214/2/3 213/2/3
f 223/1/3 213/1/3 222/1/3
f 224/2/3 214/2/3 223/2/3
f 226/2/3 218/2/3 217/2/3
f 226/2/3 216/2/3 215/2/3
f 226/2/3 217/2/3 216/2/3
f 227/1/3 219/1/3 218/1/3
f 227/2/3 218/2/3 226/2/3
f 228/4/3 222/4/3 221/4/3
f 228/1/3 219/1/3 227/1/3
f 228/4/3 220/4/3 219/4/3
f 228/4/3 221/4/3 220/4/3
f 229/4/3 222/4/3 228/4/3
f 230/4/3 222/4/3 229/4/3
f 231/1/3 223/1/3 222/1/3
f 231/4/3 222/4/3 230/4/3
f 231/1/3 224/1/3 223/1/3
f 232/1/3 224/1/3 231/1/3
f 233/2/3 225/2/3 224/2/3
f 233/1/3 224/1/3 232/1/3
f 234/2/3 225/2/3 233/2/3
f 235/2/3 226/2/3 215/2/3
f 236/1/3 227/1/3 226/1/3
f 236/2/3 226/2/3 235/2/3
f 236/1/3 229/1/3 228/1/3
f 236/1/3 228/1/3 227/1/3
f 237/4/3 230/4/3 229/4/3
f 237/1/3 229/1/3 236/1/3
f 238/1/3 232/1/3 231/1/3
f 238/4/3 230/4/3 237/4/3
f 238/1/3 231/1/3 230/1/3
f 239/1/3 232/1/3 238/1/3
f 240/2/3 233/2/3 232/2/3
f 240/1/3 232/1/3 239/1/3
f 241/2/3 233/2/3 240/2/3
f 242/2/3 235/2/3 215/2/3
f 242/2/3 215/2/3 201/2/3
f 243/1/3 236/1/3 235/1/3
f 243/2/3 235/2/3 242/2/3
f 243/1/3 237/1/3 236/1/3
f 243/1/3 238/1/3 237/1/3
f 243/1/3 239/1/3 238/1/3
f 244/1/3 239/1/3 243/1/3
f 245/2/3 240/2/3 239/2/3
f 245/1/3 239/1/3 244/1/3
f 246/2/3 240/2/3 245/2/3
f 247/1/3 244/1/3 243/1/3
f 247/1/3 243/1/3 242/1/3
f 248/2/3 245/2/3 244/2/3
f 248/1/3 244/1/3 247/1/3
f 249/2/3 245/2/3 248/2/3
f 250/1/3 247/1/3 242/1/3
f 251/2/3 248/2/3 247/2/3
f 251/1/3 247/1/3 250/1/3
f 252/2/3 248/2/3 251/2/3
f 253/1/3 250/1/3 242/1/3
f 254/2/3 251/2/3 250/2/3
f 254/1/3 250/1/3 253/1/3
f 255/2/3 251/2/3 254/2/3
f 256/1/3 253/1/3 242/1/3
f 257/2/3 254/2/3 253/2/3
f 257/1/3 253/1/3 256/1/3
f 258/2/3 254/2/3 257/2/3
f 262/1/3 260/1/3 259/1/3
f 263/1/3 260/1/3 262/1/3
f 264/1/3 260/1/3 263/1/3
f 265/1/3 260/1/3 264/1/3
f 266/1/3 260/1/3 265/1/3
f 267/1/3 260/1/3 266/1/3
f 269/1/3 266/1/3 265/1/3
f 270/3/3 267/3/3 266/3/3
f 270/1/3 266/1/3 269/1/3
f 271/1/3 260/1/3 267/1/3
f 271/3/3 267/3/3 270/3/3
f 273/1/3 270/1/3 269/1/3
f 273/1/3 269/1/3 268/1/3
f 273/1/3 271/1/3 270/1/3
f 274/1/3 273/1/3 272/1/3
f 275/2/3 261/2/3 260/2/3
f 275/1/3 273/1/3 274/1/3
f 275/1/3 260/1/3 271/1/3
f 275/1/3 271/1/3 273/1/3
f 276/2/3 261/2/3 275/2/3
f 279/2/3 278/2/3 277/2/3
f 280/2/3 278/2/3 279/2/3
f 285/4/3 282/4/3 281/4/3
f 286/4/3 282/4/3 285/4/3
f 288/2/3 284/2/3 283/2/3
f 289/4/3 287/4/3 286/4/3
f 289/2/3 284/2/3 288/2/3
f 289/4/3 285/4/3 284/4/3
f 289/4/3 286/4/3 285/4/3
f 290/4/3 287/4/3 289/4/3
f 291/4/3 287/4/3 290/4/3
f 292/4/3 287/4/3 291/4/3
f 293/4/3 291/4/3 290/4/3
f 294/4/3 291/4/3 293/4/3
f 297/1/3 296/1/3 295/1/3
f 298/1/3 296/1/3 297/1/3
f 299/4/4 300/4/4 303/4/4
f 303/4/4 300/4/4 304/4/4
f 301/2/4 302/2/4 306/2/4
f 304/4/4 305/4/4 307/4/4
f 306/2/4 302/2/4 307/2/4
f 302/4/4 303/4/4 307/4/4
f 303/4/4 304/4/4 307/4/4
f 307/4/4 305/4/4 308/4/4
f 308/4/4 305/4/4 309/4/4
f 309/4/4 305/4/4 310/4/4
f 308/4/4 309/4/4 311/4/4
f 311/4/4 309/4/4 312/4/4
f 313/2/4 314/2/4 315/2/4
f 315/2/4 314/2/4 316/2/4
f 317/1/4 318/1/4 320/1/4
f 320/1/4 318/1/4 321/1/4
f 321/1/4 318/1/4 322/1/4
f 322/1/4 318/1/4 323/1/4
f 323/1/4 318/1/4 324/1/4
f 324/1/4 318/1/4 325/1/4
f 323/1/4 324/1/4 327/1/4
f 324/3/4 325/3/4 328/3/4
f 327/1/4 324/1/4 328/1/4
f 325/1/4 318/1/4 329/1/4
f 328/3/4 325/3/4 329/3/4
f 327/1/4 328/1/4 331/1/4
f 326/1/4 327/1/4 331/1/4
f 328/1/4 329/1/4 331/1/4
f 330/1/4 331/1/4 332/1/4
f 318/2/4 319/2/4 333/2/4
f 332/1/4 331/1/4 333/1/4
f 329/1/4 318/1/4 333/1/4
f 331/1/4 329/1/4 333/1/4
f 333/2/4 319/2/4 334/2/4
f 335/1/4 336/1/4 337/1/4
f 337/1/4 336/1/4 338/1/4
f 339/1/4 340/1/4 342/1/4
f 340/2/4 341/2/4 342/2/4
f 342/2/4 341/2/4 343/2/4
f 342/1/4 343/1/4 345/1/4
f 343/2/4 344/2/4 345/2/4
f 345/2/4 344/2/4 346/2/4
f 345/1/4 346/1/4 348/1/4
f 346/2/4 347/2/4 348/2/4
f 348/2/4 347/2/4 349/2/4
f 348/1/4 349/1/4 351/1/4
f 349/2/4 350/2/4 351/2/4
f 351/2/4 350/2/4 352/2/4
f 351/1/4 352/1/4 354/1/4
f 352/2/4 353/2/4 354/2/4
f 354/2/4 353/2/4 355/2/4
f 354/1/4 355/1/4 357/1/4
f 355/2/4 356/2/4 357/2/4
f 357/2/4 356/2/4 358/2/4
f 354/1/4 357/1/4 360/1/4
f 357/1/4 358/1/4 360/1/4
f 358/2/4 359/2/4 361/2/4
f 360/1/4 358/1/4 361/1/4
f 361/2/4 359/2/4 362/2/4
f 351/1/4 354/1/4 363/1/4
f 354/1/4 360/1/4 363/1/4
f 360/2/4 361/2/4 364/2/4
f 363/1/4 360/1/4 364/1/4
f 364/2/4 361/2/4 365/2/4
f 348/1/4 351/1/4 366/1/4
f 351/1/4 363/1/4 366/1/4
f 363/2/4 364/2/4 367/2/4
f 366/1/4 363/1/4 367/1/4
f 367/2/4 364/2/4 368/2/4
f 345/1/4 348/1/4 369/1/4
f 348/1/4 366/1/4 369/1/4
f 366/2/4 367/2/4 370/2/4
f 369/1/4 366/1/4 370/1/4
f 370/2/4 367/2/4 371/2/4
f 342/1/4 345/1/4 372/1/4
f 345/1/4 369/1/4 372/1/4
f 369/2/4 370/2/4 373/2/4
f 372/1/4 369/1/4 373/1/4
f 373/2/4 370/2/4 374/2/4
f 339/1/4 342/1/4 375/1/4
f 342/1/4 372/1/4 375/1/4
f 372/2/4 373/2/4 376/2/4
f 375/1/4 372/1/4 376/1/4
f 376/2/4 373/2/4 377/2/4
f 339/1/4 375/1/4 378/1/4
f 375/2/4 376/2/4 379/2/4
f 378/1/4 375/1/4 379/1/4
f 379/2/4 376/2/4 380/2/4
f 385/1/5 382/1/5 381/1/5
f 385/2/5 383/2/5 382/2/5
f 386/1/5 384/1/5 383/1/5
f 386/2/5 383/2/5 385/2/5
f 387/1/5 386/1/5 385/1/5
f 387/1/5 384/1/5 386/1/5
f 388/1/5 384/1/5 387/1/5
f 389/1/5 387/1/5 385/1/5
f 390/1/5 384/1/5 388/1/5
f 391/1/5 385/1/5 381/1/5
f 391/1/5 390/1/5 389/1/5
f 391/1/5 389/1/5 385/1/5
f 392/1/5 384/1/5 390/1/5
f 392/1/5 390/1/5 391/1/5
f 395/1/5 394/1/5 393/1/5
f 396/1/5 394/1/5 395/1/5
f 401/4/5 398/4/5 397/4/5
f 402/4/5 398/4/5 401/4/5
f 403/4/5 400/4/5 399/4/5
f 404/4/5 400/4/5 403/4/5
f 405/2/6 406/2/6 409/2/6
f 409/2/6 406/2/6 410/2/6
f 407/2/6 408/2/6 411/2/6
f 411/2/6 408/2/6 412/2/6
f 413/2/6 414/2/6 417/2/6
f 417/2/6 414/2/6 418/2/6
f 415/2/6 416/2/6 419/2/6
f 419/2/6 416/2/6 420/2/6
f 421/2/6 422/2/6 425/2/6
f 425/2/6 422/2/6 426/2/6
f 423/2/6 424/2/6 427/2/6
f 427/2/6 424/2/6 428/2/6
f 429/2/6 430/2/6 433/2/6
f 433/2/6 430/2/6 434/2/6
f 431/2/6 432/2/6 435/2/6
f 435/2/6 432/2/6 436/2/6
f 437/2/6 438/2/6 441/2/6
f 441/2/6 438/2/6 442/2/6
f 439/2/6 440/2/6 443/2/6
f 443/2/6 440/2/6 444/2/6
f 445/2/6 446/2/6 449/2/6
f 449/2/6 446/2/6 450/2/6
f 447/2/6 448/2/6 451/2/6
f 451/2/6 448/2/6 452/2/6
f 453/2/6 454/2/6 457/2/6
f 457/2/6 454/2/6 458/2/6
f 455/2/6 456/2/6 459/2/6
f 459/2/6 456/2/6 460/2/6
f 461/2/6 462/2/6 465/2/6
f 465/2/6 462/2/6 466/2/6
f 463/2/6 464/2/6 467/2/6
f 467/2/6 464/2/6 468/2/6
f 469/2/6 470/2/6 471/2/6
f 471/2/6 470/2/6 472/2/6
f 473/2/6 474/2/6 475/2/6
f 475/2/6 474/2/6 476/2/6
f 477/2/6 478/2/6 479/2/6
f 479/2/6 478/2/6 480/2/6
f 477/2/6 479/2/6 481/2/6
f 480/2/6 478/2/6 482/2/6
f 477/2/6 481/2/6 483/2/6
f 481/2/6 482/2/6 483/2/6
f 482/2/6 478/2/6 484/2/6
f 483/2/6 482/2/6 484/2/6
f 485/2/6 486/2/6 487/2/6
f 487/2/6 486/2/6 488/2/6
f 485/2/6 487/2/6 489/2/6
f 488/2/6 486/2/6 490/2/6
f 485/2/6 489/2/6 491/2/6
f 489/2/6 490/2/6 491/2/6
f 490/2/6 486/2/6 492/2/6
f 491/2/6 490/2/6 492/2/6
f 493/4/6 494/4/6 497/4/6
f 497/4/6 494/4/6 498/4/6
f 495/4/6 496/4/6 499/4/6
f 499/4/6 496/4/6 500/4/6
f 501/4/6 502/4/6 503/4/6
f 503/4/6 502/4/6 504/4/6
