# MagicaVoxel @ Ephtracy

# group
o 

# material
mtllib preHouse.mtl
usemtl palette

# normals
vn -1 0 0
vn 1 0 0
vn 0 0 1
vn 0 0 -1
vn 0 -1 0
vn 0 1 0

# texcoords
vt 0.892578 0.5
vt 0.958984 0.5
vt 0.970703 0.5
vt 0.974609 0.5
vt 0.986328 0.5

# verts
v -0.5 0 0.6
v -0.5 0 -0.5
v -0.5 0.9 0.6
v -0.5 0.9 0.5
v -0.5 0.9 -0.4
v -0.5 0.9 -0.5
v -0.5 1 0.6
v -0.5 1 0.5
v -0.5 1 0.4
v -0.5 1 -0.3
v -0.5 1 -0.4
v -0.5 1 -0.5
v -0.5 1.1 0.5
v -0.5 1.1 0.4
v -0.5 1.1 0.3
v -0.5 1.1 -0.2
v -0.5 1.1 -0.3
v -0.5 1.1 -0.4
v -0.5 1.2 0.4
v -0.5 1.2 0.3
v -0.5 1.2 -0.2
v -0.5 1.2 -0.3
v -0.5 1.3 0.3
v -0.5 1.3 -0.2
v 0.3 0.8 0.4
v 0.3 0.8 -0.3
v 0.3 0.9 0.4
v 0.3 0.9 -0.3
v -0.4 0.8 0.4
v -0.4 0.8 -0.3
v -0.4 0.9 0.4
v -0.4 0.9 -0.3
v 0.4 0 0.6
v 0.4 0 0.4
v 0.4 0 -0.3
v 0.4 0 -0.5
v 0.4 0.1 0.4
v 0.4 0.1 -0.3
v 0.4 0.6 0.4
v 0.4 0.6 -0.3
v 0.4 0.7 0.4
v 0.4 0.7 -0.3
v 0.4 0.9 0.6
v 0.4 0.9 0.5
v 0.4 0.9 -0.4
v 0.4 0.9 -0.5
v 0.4 1 0.6
v 0.4 1 0.5
v 0.4 1 0.4
v 0.4 1 -0.3
v 0.4 1 -0.4
v 0.4 1 -0.5
v 0.4 1.1 0.5
v 0.4 1.1 0.4
v 0.4 1.1 0.3
v 0.4 1.1 -0.2
v 0.4 1.1 -0.3
v 0.4 1.1 -0.4
v 0.4 1.2 0.4
v 0.4 1.2 0.3
v 0.4 1.2 -0.2
v 0.4 1.2 -0.3
v 0.4 1.3 0.3
v 0.4 1.3 -0.2
v -0.5 0 0.6
v -0.5 0.9 0.6
v -0.5 1 0.6
v -0.4 0 0.6
v -0.4 0.7 0.6
v -0.1 0 0.6
v -0.1 0.7 0.6
v 5.96046e-008 0 0.6
v 5.96046e-008 0.7 0.6
v 0.3 0 0.6
v 0.3 0.7 0.6
v 0.4 0 0.6
v 0.4 0.9 0.6
v 0.4 1 0.6
v -0.5 1 0.5
v -0.5 1.1 0.5
v 0.4 1 0.5
v 0.4 1.1 0.5
v -0.5 1.1 0.4
v -0.5 1.2 0.4
v 0.4 1.1 0.4
v 0.4 1.2 0.4
v -0.5 1.2 0.3
v -0.5 1.3 0.3
v 0.4 1.2 0.3
v 0.4 1.3 0.3
v -0.4 0.8 -0.3
v -0.4 0.9 -0.3
v 0.3 0.8 -0.3
v 0.3 0.9 -0.3
v -0.4 0.8 0.4
v -0.4 0.9 0.4
v 0.3 0.8 0.4
v 0.3 0.9 0.4
v -0.5 1.2 -0.2
v -0.5 1.3 -0.2
v 0.4 1.2 -0.2
v 0.4 1.3 -0.2
v -0.5 1.1 -0.3
v -0.5 1.2 -0.3
v 0.4 1.1 -0.3
v 0.4 1.2 -0.3
v -0.5 1 -0.4
v -0.5 1.1 -0.4
v 0.4 1 -0.4
v 0.4 1.1 -0.4
v -0.5 0 -0.5
v -0.5 0.9 -0.5
v -0.5 1 -0.5
v -0.4 0 -0.5
v -0.4 0.7 -0.5
v -0.1 0 -0.5
v -0.1 0.7 -0.5
v 5.96046e-008 0 -0.5
v 5.96046e-008 0.7 -0.5
v 0.3 0 -0.5
v 0.3 0.7 -0.5
v 0.4 0 -0.5
v 0.4 0.9 -0.5
v 0.4 1 -0.5
v -0.5 0 0.6
v -0.4 0 0.6
v -0.1 0 0.6
v 5.96046e-008 0 0.6
v 0.3 0 0.6
v 0.4 0 0.6
v -0.4 0 0.5
v -0.1 0 0.5
v 5.96046e-008 0 0.5
v 0.3 0 0.5
v 0.3 0 0.4
v 0.4 0 0.4
v 0.3 0 -0.3
v 0.4 0 -0.3
v -0.4 0 -0.4
v -0.1 0 -0.4
v 5.96046e-008 0 -0.4
v 0.3 0 -0.4
v -0.5 0 -0.5
v -0.4 0 -0.5
v -0.1 0 -0.5
v 5.96046e-008 0 -0.5
v 0.3 0 -0.5
v 0.4 0 -0.5
v -0.4 0.9 0.4
v 0.3 0.9 0.4
v -0.4 0.9 -0.3
v 0.3 0.9 -0.3
v -0.4 0.8 0.4
v 0.3 0.8 0.4
v -0.4 0.8 -0.3
v 0.3 0.8 -0.3
v -0.5 1 0.6
v 0.4 1 0.6
v -0.5 1 0.5
v 0.4 1 0.5
v -0.5 1 -0.4
v 0.4 1 -0.4
v -0.5 1 -0.5
v 0.4 1 -0.5
v -0.5 1.1 0.5
v 0.4 1.1 0.5
v -0.5 1.1 0.4
v 0.4 1.1 0.4
v -0.5 1.1 -0.3
v 0.4 1.1 -0.3
v -0.5 1.1 -0.4
v 0.4 1.1 -0.4
v -0.5 1.2 0.4
v 0.4 1.2 0.4
v -0.5 1.2 0.3
v 0.4 1.2 0.3
v -0.5 1.2 -0.2
v 0.4 1.2 -0.2
v -0.5 1.2 -0.3
v 0.4 1.2 -0.3
v -0.5 1.3 0.3
v 0.4 1.3 0.3
v -0.5 1.3 -0.2
v 0.4 1.3 -0.2

# faces
f 3/3/1 2/3/1 1/3/1
f 4/3/1 2/3/1 3/3/1
f 5/3/1 2/3/1 4/3/1
f 6/3/1 2/3/1 5/3/1
f 7/4/1 4/4/1 3/4/1
f 8/3/1 5/3/1 4/3/1
f 8/4/1 4/4/1 7/4/1
f 9/3/1 5/3/1 8/3/1
f 10/3/1 5/3/1 9/3/1
f 11/4/1 6/4/1 5/4/1
f 11/3/1 5/3/1 10/3/1
f 12/4/1 6/4/1 11/4/1
f 13/4/1 9/4/1 8/4/1
f 14/3/1 10/3/1 9/3/1
f 14/4/1 9/4/1 13/4/1
f 15/3/1 10/3/1 14/3/1
f 16/3/1 10/3/1 15/3/1
f 17/4/1 11/4/1 10/4/1
f 17/3/1 10/3/1 16/3/1
f 18/4/1 11/4/1 17/4/1
f 19/4/1 15/4/1 14/4/1
f 20/3/1 16/3/1 15/3/1
f 20/4/1 15/4/1 19/4/1
f 21/4/1 17/4/1 16/4/1
f 21/3/1 16/3/1 20/3/1
f 22/4/1 17/4/1 21/4/1
f 23/4/1 21/4/1 20/4/1
f 24/4/1 21/4/1 23/4/1
f 27/3/1 26/3/1 25/3/1
f 28/3/1 26/3/1 27/3/1
f 29/3/2 30/3/2 31/3/2
f 31/3/2 30/3/2 32/3/2
f 33/3/2 34/3/2 37/3/2
f 34/5/2 35/5/2 37/5/2
f 35/3/2 36/3/2 38/3/2
f 37/5/2 35/5/2 38/5/2
f 33/3/2 37/3/2 39/3/2
f 37/2/2 38/2/2 39/2/2
f 38/3/2 36/3/2 40/3/2
f 39/2/2 38/2/2 40/2/2
f 33/3/2 39/3/2 41/3/2
f 39/4/2 40/4/2 41/4/2
f 40/3/2 36/3/2 42/3/2
f 41/4/2 40/4/2 42/4/2
f 33/3/2 41/3/2 43/3/2
f 41/3/2 42/3/2 43/3/2
f 43/3/2 42/3/2 44/3/2
f 42/3/2 36/3/2 45/3/2
f 44/3/2 42/3/2 45/3/2
f 45/3/2 36/3/2 46/3/2
f 43/4/2 44/4/2 47/4/2
f 44/3/2 45/3/2 48/3/2
f 47/4/2 44/4/2 48/4/2
f 48/3/2 45/3/2 49/3/2
f 49/3/2 45/3/2 50/3/2
f 45/4/2 46/4/2 51/4/2
f 50/3/2 45/3/2 51/3/2
f 51/4/2 46/4/2 52/4/2
f 48/4/2 49/4/2 53/4/2
f 49/3/2 50/3/2 54/3/2
f 53/4/2 49/4/2 54/4/2
f 54/3/2 50/3/2 55/3/2
f 55/3/2 50/3/2 56/3/2
f 50/4/2 51/4/2 57/4/2
f 56/3/2 50/3/2 57/3/2
f 57/4/2 51/4/2 58/4/2
f 54/4/2 55/4/2 59/4/2
f 55/3/2 56/3/2 60/3/2
f 59/4/2 55/4/2 60/4/2
f 56/4/2 57/4/2 61/4/2
f 60/3/2 56/3/2 61/3/2
f 61/4/2 57/4/2 62/4/2
f 60/4/2 61/4/2 63/4/2
f 63/4/2 61/4/2 64/4/2
f 68/3/3 66/3/3 65/3/3
f 69/3/3 66/3/3 68/3/3
f 70/4/3 69/4/3 68/4/3
f 71/3/3 66/3/3 69/3/3
f 71/4/3 69/4/3 70/4/3
f 72/3/3 71/3/3 70/3/3
f 73/3/3 66/3/3 71/3/3
f 73/3/3 71/3/3 72/3/3
f 74/4/3 73/4/3 72/4/3
f 75/3/3 66/3/3 73/3/3
f 75/4/3 73/4/3 74/4/3
f 76/3/3 75/3/3 74/3/3
f 77/4/3 67/4/3 66/4/3
f 77/3/3 75/3/3 76/3/3
f 77/3/3 66/3/3 75/3/3
f 78/4/3 67/4/3 77/4/3
f 81/4/3 80/4/3 79/4/3
f 82/4/3 80/4/3 81/4/3
f 85/4/3 84/4/3 83/4/3
f 86/4/3 84/4/3 85/4/3
f 89/4/3 88/4/3 87/4/3
f 90/4/3 88/4/3 89/4/3
f 93/3/3 92/3/3 91/3/3
f 94/3/3 92/3/3 93/3/3
f 95/3/4 96/3/4 97/3/4
f 97/3/4 96/3/4 98/3/4
f 99/4/4 100/4/4 101/4/4
f 101/4/4 100/4/4 102/4/4
f 103/4/4 104/4/4 105/4/4
f 105/4/4 104/4/4 106/4/4
f 107/4/4 108/4/4 109/4/4
f 109/4/4 108/4/4 110/4/4
f 111/3/4 112/3/4 114/3/4
f 114/3/4 112/3/4 115/3/4
f 114/4/4 115/4/4 116/4/4
f 115/3/4 112/3/4 117/3/4
f 116/4/4 115/4/4 117/4/4
f 116/3/4 117/3/4 118/3/4
f 117/3/4 112/3/4 119/3/4
f 118/3/4 117/3/4 119/3/4
f 118/4/4 119/4/4 120/4/4
f 119/3/4 112/3/4 121/3/4
f 120/4/4 119/4/4 121/4/4
f 120/3/4 121/3/4 122/3/4
f 112/4/4 113/4/4 123/4/4
f 122/3/4 121/3/4 123/3/4
f 121/3/4 112/3/4 123/3/4
f 123/4/4 113/4/4 124/4/4
f 131/3/5 126/3/5 125/3/5
f 131/4/5 127/4/5 126/4/5
f 132/3/5 128/3/5 127/3/5
f 132/4/5 127/4/5 131/4/5
f 133/4/5 129/4/5 128/4/5
f 133/3/5 128/3/5 132/3/5
f 134/3/5 130/3/5 129/3/5
f 134/4/5 129/4/5 133/4/5
f 135/3/5 133/3/5 132/3/5
f 135/3/5 130/3/5 134/3/5
f 135/3/5 134/3/5 133/3/5
f 135/3/5 132/3/5 131/3/5
f 136/3/5 130/3/5 135/3/5
f 137/3/5 135/3/5 131/3/5
f 137/5/5 136/5/5 135/5/5
f 138/5/5 136/5/5 137/5/5
f 139/3/5 131/3/5 125/3/5
f 139/3/5 137/3/5 131/3/5
f 139/3/5 138/3/5 137/3/5
f 140/3/5 138/3/5 139/3/5
f 141/3/5 138/3/5 140/3/5
f 142/3/5 138/3/5 141/3/5
f 143/3/5 139/3/5 125/3/5
f 144/4/5 140/4/5 139/4/5
f 144/3/5 139/3/5 143/3/5
f 145/3/5 141/3/5 140/3/5
f 145/4/5 140/4/5 144/4/5
f 146/4/5 142/4/5 141/4/5
f 146/3/5 141/3/5 145/3/5
f 147/3/5 138/3/5 142/3/5
f 147/4/5 142/4/5 146/4/5
f 148/3/5 138/3/5 147/3/5
f 151/4/5 150/4/5 149/4/5
f 152/4/5 150/4/5 151/4/5
f 153/1/6 154/1/6 155/1/6
f 155/1/6 154/1/6 156/1/6
f 157/4/6 158/4/6 159/4/6
f 159/4/6 158/4/6 160/4/6
f 161/4/6 162/4/6 163/4/6
f 163/4/6 162/4/6 164/4/6
f 165/4/6 166/4/6 167/4/6
f 167/4/6 166/4/6 168/4/6
f 169/4/6 170/4/6 171/4/6
f 171/4/6 170/4/6 172/4/6
f 173/4/6 174/4/6 175/4/6
f 175/4/6 174/4/6 176/4/6
f 177/4/6 178/4/6 179/4/6
f 179/4/6 178/4/6 180/4/6
f 181/4/6 182/4/6 183/4/6
f 183/4/6 182/4/6 184/4/6
