# MagicaVoxel @ Ephtracy

# group
o 

# material
mtllib shop.mtl
usemtl palette

# normals
vn -1 0 0
vn 1 0 0
vn 0 0 1
vn 0 0 -1
vn 0 -1 0
vn 0 1 0

# texcoords
vt 0.740234 0.5
vt 0.751953 0.5
vt 0.904297 0.5
vt 0.958984 0.5
vt 0.970703 0.5
vt 0.974609 0.5

# verts
v -1.3 1.3 0.7
v -1.3 1.3 -0.6
v -1.3 1.5 0.7
v -1.3 1.5 0.6
v -1.3 1.5 -0.5
v -1.3 1.5 -0.6
v -1.3 1.7 0.6
v -1.3 1.7 -0.5
v -1.2 0 0.6
v -1.2 0 -0.5
v -1.2 0.7 0.3
v -1.2 0.7 0.1
v -1.2 0.7 0
v -1.2 0.7 -0.4
v -1.2 1 0.3
v -1.2 1 0.1
v -1.2 1 0
v -1.2 1 -0.4
v -1.2 1.3 0.6
v -1.2 1.3 -0.5
v -1.2 1.5 0.7
v -1.2 1.5 0.6
v -1.2 1.5 -0.5
v -1.2 1.5 -0.6
v -1.2 1.7 0.7
v -1.2 1.7 0.6
v -1.2 1.7 -0.5
v -1.2 1.7 -0.6
v -1.2 1.9 0.6
v -1.2 1.9 -0.5
v -1 1.8 0.1
v -1 1.8 0
v -1 1.9 0.1
v -1 1.9 0
v -0.9 1.8 0.2
v -0.9 1.8 0.1
v -0.9 1.8 0
v -0.9 1.8 -0.1
v -0.9 1.9 0.2
v -0.9 1.9 0.1
v -0.9 1.9 0
v -0.9 1.9 -0.1
v -0.6 1.7 0.7
v -0.6 1.7 0.6
v -0.6 1.8 0.1
v -0.6 1.8 0
v -0.6 1.9 0.6
v -0.6 1.9 0.1
v -0.6 1.9 0
v -0.6 2 0.7
v -0.6 2 0.6
v -0.5 1.8 0.2
v -0.5 1.8 0.1
v -0.5 1.8 0
v -0.5 1.8 -0.1
v -0.5 1.9 0.2
v -0.5 1.9 0.1
v -0.5 1.9 0
v -0.5 1.9 -0.1
v 0.2 1.8 0.3
v 0.2 1.8 -0.2
v 0.2 1.9 0.3
v 0.2 1.9 -0.2
v 1.1 1.8 0.5
v 1.1 1.8 -0.4
v 1.1 1.9 0.5
v 1.1 1.9 -0.4
v -1.1 1.8 0.5
v -1.1 1.8 -0.4
v -1.1 1.9 0.5
v -1.1 1.9 -0.4
v -0.8 1.8 0.2
v -0.8 1.8 0.1
v -0.8 1.8 0
v -0.8 1.8 -0.1
v -0.8 1.9 0.2
v -0.8 1.9 0.1
v -0.8 1.9 0
v -0.8 1.9 -0.1
v -0.7 1.8 0.1
v -0.7 1.8 0
v -0.7 1.9 0.1
v -0.7 1.9 0
v -0.4 1.8 0.2
v -0.4 1.8 0.1
v -0.4 1.8 0
v -0.4 1.8 -0.1
v -0.4 1.9 0.2
v -0.4 1.9 0.1
v -0.4 1.9 0
v -0.4 1.9 -0.1
v -0.3 1.8 0.1
v -0.3 1.8 0
v -0.3 1.9 0.1
v -0.3 1.9 0
v 0.6 1.7 0.7
v 0.6 1.7 0.6
v 0.6 1.9 0.6
v 0.6 2 0.7
v 0.6 2 0.6
v 0.9 1.8 0.3
v 0.9 1.8 -0.2
v 0.9 1.9 0.3
v 0.9 1.9 -0.2
v 1.2 0 0.6
v 1.2 0 -0.5
v 1.2 0.7 0.3
v 1.2 0.7 0.1
v 1.2 0.7 0
v 1.2 0.7 -0.4
v 1.2 1 0.3
v 1.2 1 0.1
v 1.2 1 0
v 1.2 1 -0.4
v 1.2 1.3 0.6
v 1.2 1.3 -0.5
v 1.2 1.5 0.7
v 1.2 1.5 0.6
v 1.2 1.5 -0.5
v 1.2 1.5 -0.6
v 1.2 1.7 0.7
v 1.2 1.7 0.6
v 1.2 1.7 -0.5
v 1.2 1.7 -0.6
v 1.2 1.9 0.6
v 1.2 1.9 -0.5
v 1.3 1.3 0.7
v 1.3 1.3 -0.6
v 1.3 1.5 0.7
v 1.3 1.5 0.6
v 1.3 1.5 -0.5
v 1.3 1.5 -0.6
v 1.3 1.7 0.6
v 1.3 1.7 -0.5
v -1.3 1.3 0.7
v -1.3 1.5 0.7
v -1.2 1.5 0.7
v -1.2 1.7 0.7
v -0.6 1.4 0.7
v -0.6 1.7 0.7
v -0.6 2 0.7
v -0.3 1.5 0.7
v -0.3 1.6 0.7
v -0.3 1.7 0.7
v -0.3 1.8 0.7
v -0.2 1.5 0.7
v -0.2 1.6 0.7
v -0.2 1.7 0.7
v 0.2 1.5 0.7
v 0.2 1.6 0.7
v 0.2 1.7 0.7
v 0.3 1.5 0.7
v 0.3 1.6 0.7
v 0.3 1.7 0.7
v 0.3 1.8 0.7
v 0.3 1.9 0.7
v 0.4 1.8 0.7
v 0.4 1.9 0.7
v 0.6 1.4 0.7
v 0.6 1.7 0.7
v 0.6 2 0.7
v 1.2 1.5 0.7
v 1.2 1.7 0.7
v 1.3 1.3 0.7
v 1.3 1.5 0.7
v -1.3 1.5 0.6
v -1.3 1.7 0.6
v -1.2 0 0.6
v -1.2 1.3 0.6
v -1.2 1.5 0.6
v -1.2 1.7 0.6
v -1.2 1.9 0.6
v -1.1 0.1 0.6
v -1.1 1.2 0.6
v -0.6 0.1 0.6
v -0.6 1.2 0.6
v -0.6 1.7 0.6
v -0.6 1.9 0.6
v -0.5 0.1 0.6
v -0.5 1.2 0.6
v -0.3 0.6 0.6
v -0.3 0.8 0.6
v -0.2 0.6 0.6
v -0.2 0.8 0.6
v -0.1 0.1 0.6
v -0.1 1.2 0.6
v -1.19209e-007 0.1 0.6
v -1.19209e-007 1.2 0.6
v 0.0999999 0.6 0.6
v 0.0999999 0.8 0.6
v 0.2 0.6 0.6
v 0.2 0.8 0.6
v 0.4 0.1 0.6
v 0.4 1.2 0.6
v 0.6 0.1 0.6
v 0.6 1.2 0.6
v 0.6 1.7 0.6
v 0.6 1.9 0.6
v 1.1 0.1 0.6
v 1.1 1.2 0.6
v 1.2 0 0.6
v 1.2 1.3 0.6
v 1.2 1.5 0.6
v 1.2 1.7 0.6
v 1.2 1.9 0.6
v 1.3 1.5 0.6
v 1.3 1.7 0.6
v 0.2 1.8 0.3
v 0.2 1.9 0.3
v 0.9 1.8 0.3
v 0.9 1.9 0.3
v -0.9 1.8 0.2
v -0.9 1.9 0.2
v -0.8 1.8 0.2
v -0.8 1.9 0.2
v -0.5 1.8 0.2
v -0.5 1.9 0.2
v -0.4 1.8 0.2
v -0.4 1.9 0.2
v -1 1.8 0.1
v -1 1.9 0.1
v -0.9 1.8 0.1
v -0.9 1.9 0.1
v -0.8 1.8 0.1
v -0.8 1.9 0.1
v -0.7 1.8 0.1
v -0.7 1.9 0.1
v -0.6 1.8 0.1
v -0.6 1.9 0.1
v -0.5 1.8 0.1
v -0.5 1.9 0.1
v -0.4 1.8 0.1
v -0.4 1.9 0.1
v -0.3 1.8 0.1
v -0.3 1.9 0.1
v -1.1 1.8 -0.4
v -1.1 1.9 -0.4
v 1.1 1.8 -0.4
v 1.1 1.9 -0.4
v -0.6 1.9 0.6
v -0.6 2 0.6
v 0.6 1.9 0.6
v 0.6 2 0.6
v -1.1 1.8 0.5
v -1.1 1.9 0.5
v 1.1 1.8 0.5
v 1.1 1.9 0.5
v -1 1.8 0
v -1 1.9 0
v -0.9 1.8 0
v -0.9 1.9 0
v -0.8 1.8 0
v -0.8 1.9 0
v -0.7 1.8 0
v -0.7 1.9 0
v -0.6 1.8 0
v -0.6 1.9 0
v -0.5 1.8 0
v -0.5 1.9 0
v -0.4 1.8 0
v -0.4 1.9 0
v -0.3 1.8 0
v -0.3 1.9 0
v -0.9 1.8 -0.1
v -0.9 1.9 -0.1
v -0.8 1.8 -0.1
v -0.8 1.9 -0.1
v -0.5 1.8 -0.1
v -0.5 1.9 -0.1
v -0.4 1.8 -0.1
v -0.4 1.9 -0.1
v 0.2 1.8 -0.2
v 0.2 1.9 -0.2
v 0.9 1.8 -0.2
v 0.9 1.9 -0.2
v -1.3 1.5 -0.5
v -1.3 1.7 -0.5
v -1.2 0 -0.5
v -1.2 1.3 -0.5
v -1.2 1.5 -0.5
v -1.2 1.7 -0.5
v -1.2 1.9 -0.5
v 1.2 0 -0.5
v 1.2 1.3 -0.5
v 1.2 1.5 -0.5
v 1.2 1.7 -0.5
v 1.2 1.9 -0.5
v 1.3 1.5 -0.5
v 1.3 1.7 -0.5
v -1.3 1.3 -0.6
v -1.3 1.5 -0.6
v -1.2 1.5 -0.6
v -1.2 1.7 -0.6
v 1.2 1.5 -0.6
v 1.2 1.7 -0.6
v 1.3 1.3 -0.6
v 1.3 1.5 -0.6
v -1.2 0 0.6
v 1.2 0 0.6
v -1.2 0 -0.5
v 1.2 0 -0.5
v -1.3 1.3 0.7
v 1.3 1.3 0.7
v -1.2 1.3 0.6
v 1.2 1.3 0.6
v -1.2 1.3 -0.5
v 1.2 1.3 -0.5
v -1.3 1.3 -0.6
v 1.3 1.3 -0.6
v -1.3 1.5 0.7
v -1.2 1.5 0.7
v 1.2 1.5 0.7
v 1.3 1.5 0.7
v -1.3 1.5 0.6
v -1.2 1.5 0.6
v 1.2 1.5 0.6
v 1.3 1.5 0.6
v -1.3 1.5 -0.5
v -1.2 1.5 -0.5
v 1.2 1.5 -0.5
v 1.3 1.5 -0.5
v -1.3 1.5 -0.6
v -1.2 1.5 -0.6
v 1.2 1.5 -0.6
v 1.3 1.5 -0.6
v -1.2 1.7 0.7
v -0.6 1.7 0.7
v 0.6 1.7 0.7
v 1.2 1.7 0.7
v -1.3 1.7 0.6
v -1.2 1.7 0.6
v -0.6 1.7 0.6
v 0.6 1.7 0.6
v 1.2 1.7 0.6
v 1.3 1.7 0.6
v -1.3 1.7 -0.5
v -1.2 1.7 -0.5
v 1.2 1.7 -0.5
v 1.3 1.7 -0.5
v -1.2 1.7 -0.6
v 1.2 1.7 -0.6
v -1.1 1.8 0.5
v 1.1 1.8 0.5
v 0.2 1.8 0.3
v 0.9 1.8 0.3
v -0.9 1.8 0.2
v -0.8 1.8 0.2
v -0.5 1.8 0.2
v -0.4 1.8 0.2
v -1 1.8 0.1
v -0.9 1.8 0.1
v -0.8 1.8 0.1
v -0.7 1.8 0.1
v -0.6 1.8 0.1
v -0.5 1.8 0.1
v -0.4 1.8 0.1
v -0.3 1.8 0.1
v -1 1.8 0
v -0.9 1.8 0
v -0.8 1.8 0
v -0.7 1.8 0
v -0.6 1.8 0
v -0.5 1.8 0
v -0.4 1.8 0
v -0.3 1.8 0
v -0.9 1.8 -0.1
v -0.8 1.8 -0.1
v -0.5 1.8 -0.1
v -0.4 1.8 -0.1
v 0.2 1.8 -0.2
v 0.9 1.8 -0.2
v -1.1 1.8 -0.4
v 1.1 1.8 -0.4
v -1.2 1.9 0.6
v -0.6 1.9 0.6
v 0.6 1.9 0.6
v 1.2 1.9 0.6
v -1.1 1.9 0.5
v 1.1 1.9 0.5
v 0.2 1.9 0.3
v 0.9 1.9 0.3
v -0.9 1.9 0.2
v -0.8 1.9 0.2
v -0.5 1.9 0.2
v -0.4 1.9 0.2
v 0.6 1.9 0.2
v 0.7 1.9 0.2
v -1 1.9 0.1
v -0.9 1.9 0.1
v -0.8 1.9 0.1
v -0.7 1.9 0.1
v -0.6 1.9 0.1
v -0.5 1.9 0.1
v -0.4 1.9 0.1
v -0.3 1.9 0.1
v 0.5 1.9 0.1
v 0.6 1.9 0.1
v 0.7 1.9 0.1
v 0.8 1.9 0.1
v -1 1.9 0
v -0.9 1.9 0
v -0.8 1.9 0
v -0.7 1.9 0
v -0.6 1.9 0
v -0.5 1.9 0
v -0.4 1.9 0
v -0.3 1.9 0
v 0.5 1.9 0
v 0.6 1.9 0
v 0.7 1.9 0
v 0.8 1.9 0
v -0.9 1.9 -0.1
v -0.8 1.9 -0.1
v -0.5 1.9 -0.1
v -0.4 1.9 -0.1
v 0.6 1.9 -0.1
v 0.7 1.9 -0.1
v 0.2 1.9 -0.2
v 0.9 1.9 -0.2
v -1.1 1.9 -0.4
v 1.1 1.9 -0.4
v -1.2 1.9 -0.5
v 1.2 1.9 -0.5
v -0.6 2 0.7
v 0.6 2 0.7
v -0.6 2 0.6
v 0.6 2 0.6

# faces
f 3/1/1 2/1/1 1/1/1
f 4/1/1 2/1/1 3/1/1
f 5/1/1 2/1/1 4/1/1
f 6/1/1 2/1/1 5/1/1
f 7/1/1 5/1/1 4/1/1
f 8/1/1 5/1/1 7/1/1
f 11/5/1 10/5/1 9/5/1
f 12/5/1 10/5/1 11/5/1
f 13/5/1 10/5/1 12/5/1
f 14/5/1 10/5/1 13/5/1
f 15/5/1 11/5/1 9/5/1
f 15/2/1 12/2/1 11/2/1
f 16/5/1 13/5/1 12/5/1
f 16/2/1 12/2/1 15/2/1
f 17/2/1 14/2/1 13/2/1
f 17/5/1 13/5/1 16/5/1
f 18/5/1 10/5/1 14/5/1
f 18/2/1 14/2/1 17/2/1
f 19/5/1 17/5/1 16/5/1
f 19/5/1 16/5/1 15/5/1
f 19/5/1 18/5/1 17/5/1
f 19/5/1 15/5/1 9/5/1
f 20/5/1 10/5/1 18/5/1
f 20/5/1 18/5/1 19/5/1
f 25/1/1 22/1/1 21/1/1
f 26/1/1 22/1/1 25/1/1
f 27/1/1 24/1/1 23/1/1
f 28/1/1 24/1/1 27/1/1
f 29/1/1 27/1/1 26/1/1
f 30/1/1 27/1/1 29/1/1
f 33/5/1 32/5/1 31/5/1
f 34/5/1 32/5/1 33/5/1
f 39/5/1 36/5/1 35/5/1
f 40/5/1 36/5/1 39/5/1
f 41/5/1 38/5/1 37/5/1
f 42/5/1 38/5/1 41/5/1
f 47/4/1 44/4/1 43/4/1
f 48/5/1 46/5/1 45/5/1
f 49/5/1 46/5/1 48/5/1
f 50/4/1 47/4/1 43/4/1
f 51/4/1 47/4/1 50/4/1
f 56/5/1 53/5/1 52/5/1
f 57/5/1 53/5/1 56/5/1
f 58/5/1 55/5/1 54/5/1
f 59/5/1 55/5/1 58/5/1
f 62/5/1 61/5/1 60/5/1
f 63/5/1 61/5/1 62/5/1
f 66/1/1 65/1/1 64/1/1
f 67/1/1 65/1/1 66/1/1
f 68/1/2 69/1/2 70/1/2
f 70/1/2 69/1/2 71/1/2
f 72/5/2 73/5/2 76/5/2
f 76/5/2 73/5/2 77/5/2
f 74/5/2 75/5/2 78/5/2
f 78/5/2 75/5/2 79/5/2
f 80/5/2 81/5/2 82/5/2
f 82/5/2 81/5/2 83/5/2
f 84/5/2 85/5/2 88/5/2
f 88/5/2 85/5/2 89/5/2
f 86/5/2 87/5/2 90/5/2
f 90/5/2 87/5/2 91/5/2
f 92/5/2 93/5/2 94/5/2
f 94/5/2 93/5/2 95/5/2
f 96/4/2 97/4/2 98/4/2
f 96/4/2 98/4/2 99/4/2
f 99/4/2 98/4/2 100/4/2
f 101/5/2 102/5/2 103/5/2
f 103/5/2 102/5/2 104/5/2
f 105/5/2 106/5/2 107/5/2
f 107/5/2 106/5/2 108/5/2
f 108/5/2 106/5/2 109/5/2
f 109/5/2 106/5/2 110/5/2
f 105/5/2 107/5/2 111/5/2
f 107/2/2 108/2/2 111/2/2
f 108/5/2 109/5/2 112/5/2
f 111/2/2 108/2/2 112/2/2
f 109/2/2 110/2/2 113/2/2
f 112/5/2 109/5/2 113/5/2
f 110/5/2 106/5/2 114/5/2
f 113/2/2 110/2/2 114/2/2
f 112/5/2 113/5/2 115/5/2
f 111/5/2 112/5/2 115/5/2
f 113/5/2 114/5/2 115/5/2
f 105/5/2 111/5/2 115/5/2
f 114/5/2 106/5/2 116/5/2
f 115/5/2 114/5/2 116/5/2
f 117/1/2 118/1/2 121/1/2
f 121/1/2 118/1/2 122/1/2
f 119/1/2 120/1/2 123/1/2
f 123/1/2 120/1/2 124/1/2
f 122/1/2 123/1/2 125/1/2
f 125/1/2 123/1/2 126/1/2
f 127/1/2 128/1/2 129/1/2
f 129/1/2 128/1/2 130/1/2
f 130/1/2 128/1/2 131/1/2
f 131/1/2 128/1/2 132/1/2
f 130/1/2 131/1/2 133/1/2
f 133/1/2 131/1/2 134/1/2
f 137/1/3 136/1/3 135/1/3
f 139/1/3 137/1/3 135/1/3
f 139/1/3 138/1/3 137/1/3
f 140/1/3 138/1/3 139/1/3
f 142/4/3 140/4/3 139/4/3
f 142/4/3 141/4/3 140/4/3
f 143/4/3 141/4/3 142/4/3
f 144/4/3 141/4/3 143/4/3
f 145/4/3 141/4/3 144/4/3
f 146/4/3 142/4/3 139/4/3
f 146/1/3 143/1/3 142/1/3
f 147/4/3 144/4/3 143/4/3
f 147/1/3 143/1/3 146/1/3
f 148/1/3 145/1/3 144/1/3
f 148/4/3 144/4/3 147/4/3
f 149/4/3 147/4/3 146/4/3
f 149/4/3 146/4/3 139/4/3
f 150/1/3 148/1/3 147/1/3
f 150/4/3 147/4/3 149/4/3
f 151/1/3 145/1/3 148/1/3
f 151/1/3 148/1/3 150/1/3
f 152/1/3 150/1/3 149/1/3
f 152/4/3 149/4/3 139/4/3
f 153/4/3 151/4/3 150/4/3
f 153/1/3 150/1/3 152/1/3
f 154/1/3 145/1/3 151/1/3
f 154/4/3 151/4/3 153/4/3
f 155/4/3 141/4/3 145/4/3
f 155/1/3 145/1/3 154/1/3
f 156/4/3 141/4/3 155/4/3
f 157/4/3 154/4/3 153/4/3
f 157/4/3 153/4/3 152/4/3
f 157/1/3 156/1/3 155/1/3
f 157/4/3 155/4/3 154/4/3
f 158/4/3 141/4/3 156/4/3
f 158/1/3 156/1/3 157/1/3
f 159/1/3 139/1/3 135/1/3
f 159/4/3 157/4/3 152/4/3
f 159/4/3 158/4/3 157/4/3
f 159/4/3 152/4/3 139/4/3
f 160/4/3 158/4/3 159/4/3
f 161/4/3 141/4/3 158/4/3
f 161/4/3 158/4/3 160/4/3
f 162/1/3 160/1/3 159/1/3
f 163/1/3 160/1/3 162/1/3
f 164/1/3 159/1/3 135/1/3
f 164/1/3 162/1/3 159/1/3
f 165/1/3 162/1/3 164/1/3
f 170/1/3 167/1/3 166/1/3
f 171/1/3 167/1/3 170/1/3
f 173/5/3 169/5/3 168/5/3
f 174/5/3 169/5/3 173/5/3
f 175/5/3 173/5/3 168/5/3
f 175/2/3 174/2/3 173/2/3
f 176/5/3 169/5/3 174/5/3
f 176/2/3 174/2/3 175/2/3
f 177/1/3 172/1/3 171/1/3
f 178/1/3 172/1/3 177/1/3
f 179/5/3 175/5/3 168/5/3
f 179/5/3 176/5/3 175/5/3
f 180/5/3 169/5/3 176/5/3
f 180/5/3 176/5/3 179/5/3
f 181/2/3 180/2/3 179/2/3
f 182/2/3 180/2/3 181/2/3
f 183/2/3 181/2/3 179/2/3
f 183/5/3 182/5/3 181/5/3
f 184/2/3 180/2/3 182/2/3
f 184/5/3 182/5/3 183/5/3
f 185/5/3 179/5/3 168/5/3
f 185/2/3 183/2/3 179/2/3
f 185/2/3 184/2/3 183/2/3
f 186/2/3 180/2/3 184/2/3
f 186/2/3 184/2/3 185/2/3
f 186/5/3 169/5/3 180/5/3
f 187/5/3 185/5/3 168/5/3
f 187/5/3 186/5/3 185/5/3
f 188/5/3 169/5/3 186/5/3
f 188/5/3 186/5/3 187/5/3
f 189/2/3 188/2/3 187/2/3
f 190/2/3 188/2/3 189/2/3
f 191/2/3 189/2/3 187/2/3
f 191/5/3 190/5/3 189/5/3
f 192/2/3 188/2/3 190/2/3
f 192/5/3 190/5/3 191/5/3
f 193/5/3 187/5/3 168/5/3
f 193/2/3 191/2/3 187/2/3
f 193/2/3 192/2/3 191/2/3
f 194/2/3 188/2/3 192/2/3
f 194/2/3 192/2/3 193/2/3
f 194/5/3 169/5/3 188/5/3
f 195/5/3 193/5/3 168/5/3
f 195/5/3 194/5/3 193/5/3
f 196/5/3 169/5/3 194/5/3
f 196/5/3 194/5/3 195/5/3
f 199/5/3 195/5/3 168/5/3
f 199/2/3 196/2/3 195/2/3
f 200/5/3 169/5/3 196/5/3
f 200/2/3 196/2/3 199/2/3
f 201/5/3 199/5/3 168/5/3
f 201/5/3 200/5/3 199/5/3
f 202/5/3 169/5/3 200/5/3
f 202/5/3 200/5/3 201/5/3
f 204/1/3 198/1/3 197/1/3
f 205/1/3 198/1/3 204/1/3
f 206/1/3 204/1/3 203/1/3
f 207/1/3 204/1/3 206/1/3
f 210/5/3 209/5/3 208/5/3
f 211/5/3 209/5/3 210/5/3
f 214/5/3 213/5/3 212/5/3
f 215/5/3 213/5/3 214/5/3
f 218/5/3 217/5/3 216/5/3
f 219/5/3 217/5/3 218/5/3
f 222/5/3 221/5/3 220/5/3
f 223/5/3 221/5/3 222/5/3
f 226/5/3 225/5/3 224/5/3
f 227/5/3 225/5/3 226/5/3
f 230/5/3 229/5/3 228/5/3
f 231/5/3 229/5/3 230/5/3
f 234/5/3 233/5/3 232/5/3
f 235/5/3 233/5/3 234/5/3
f 238/1/3 237/1/3 236/1/3
f 239/1/3 237/1/3 238/1/3
f 240/4/4 241/4/4 242/4/4
f 242/4/4 241/4/4 243/4/4
f 244/1/4 245/1/4 246/1/4
f 246/1/4 245/1/4 247/1/4
f 248/5/4 249/5/4 250/5/4
f 250/5/4 249/5/4 251/5/4
f 252/5/4 253/5/4 254/5/4
f 254/5/4 253/5/4 255/5/4
f 256/5/4 257/5/4 258/5/4
f 258/5/4 257/5/4 259/5/4
f 260/5/4 261/5/4 262/5/4
f 262/5/4 261/5/4 263/5/4
f 264/5/4 265/5/4 266/5/4
f 266/5/4 265/5/4 267/5/4
f 268/5/4 269/5/4 270/5/4
f 270/5/4 269/5/4 271/5/4
f 272/5/4 273/5/4 274/5/4
f 274/5/4 273/5/4 275/5/4
f 276/1/4 277/1/4 280/1/4
f 280/1/4 277/1/4 281/1/4
f 278/5/4 279/5/4 283/5/4
f 283/5/4 279/5/4 284/5/4
f 281/1/4 282/1/4 286/1/4
f 286/1/4 282/1/4 287/1/4
f 285/1/4 286/1/4 288/1/4
f 288/1/4 286/1/4 289/1/4
f 290/1/4 291/1/4 292/1/4
f 290/1/4 292/1/4 294/1/4
f 292/1/4 293/1/4 294/1/4
f 294/1/4 293/1/4 295/1/4
f 290/1/4 294/1/4 296/1/4
f 296/1/4 294/1/4 297/1/4
f 300/5/5 299/5/5 298/5/5
f 301/5/5 299/5/5 300/5/5
f 304/1/5 303/1/5 302/1/5
f 305/1/5 303/1/5 304/1/5
f 306/1/5 304/1/5 302/1/5
f 307/1/5 303/1/5 305/1/5
f 308/1/5 306/1/5 302/1/5
f 308/1/5 307/1/5 306/1/5
f 309/1/5 303/1/5 307/1/5
f 309/1/5 307/1/5 308/1/5
f 310/1/6 311/1/6 314/1/6
f 314/1/6 311/1/6 315/1/6
f 312/1/6 313/1/6 316/1/6
f 316/1/6 313/1/6 317/1/6
f 318/1/6 319/1/6 322/1/6
f 322/1/6 319/1/6 323/1/6
f 320/1/6 321/1/6 324/1/6
f 324/1/6 321/1/6 325/1/6
f 326/1/6 327/1/6 331/1/6
f 331/1/6 327/1/6 332/1/6
f 328/1/6 329/1/6 333/1/6
f 333/1/6 329/1/6 334/1/6
f 330/1/6 331/1/6 336/1/6
f 336/1/6 331/1/6 337/1/6
f 334/1/6 335/1/6 338/1/6
f 338/1/6 335/1/6 339/1/6
f 337/1/6 338/1/6 340/1/6
f 340/1/6 338/1/6 341/1/6
f 342/3/6 343/3/6 344/3/6
f 344/3/6 343/3/6 345/3/6
f 342/3/6 344/3/6 346/3/6
f 346/3/6 344/3/6 347/3/6
f 347/3/6 344/3/6 348/3/6
f 348/3/6 344/3/6 349/3/6
f 342/3/6 346/3/6 350/3/6
f 350/3/6 346/3/6 351/3/6
f 347/3/6 348/3/6 352/3/6
f 352/3/6 348/3/6 353/3/6
f 353/3/6 348/3/6 354/3/6
f 354/3/6 348/3/6 355/3/6
f 349/3/6 344/3/6 356/3/6
f 356/3/6 344/3/6 357/3/6
f 342/3/6 350/3/6 358/3/6
f 353/3/6 354/3/6 361/3/6
f 361/3/6 354/3/6 362/3/6
f 357/3/6 344/3/6 365/3/6
f 358/3/6 359/3/6 366/3/6
f 362/3/6 363/3/6 367/3/6
f 360/3/6 361/3/6 367/3/6
f 361/3/6 362/3/6 367/3/6
f 367/3/6 363/3/6 368/3/6
f 364/3/6 365/3/6 369/3/6
f 367/3/6 368/3/6 370/3/6
f 368/3/6 369/3/6 370/3/6
f 369/3/6 365/3/6 370/3/6
f 365/3/6 344/3/6 370/3/6
f 366/3/6 367/3/6 370/3/6
f 345/3/6 343/3/6 371/3/6
f 366/3/6 370/3/6 372/3/6
f 370/3/6 371/3/6 372/3/6
f 358/3/6 366/3/6 372/3/6
f 342/3/6 358/3/6 372/3/6
f 371/3/6 343/3/6 373/3/6
f 372/3/6 371/3/6 373/3/6
f 374/1/6 375/1/6 378/1/6
f 376/1/6 377/1/6 378/1/6
f 375/1/6 376/1/6 378/1/6
f 378/1/6 377/1/6 379/1/6
f 380/5/6 381/5/6 386/5/6
f 386/5/6 381/5/6 387/5/6
f 382/5/6 383/5/6 389/5/6
f 389/5/6 383/5/6 390/5/6
f 384/5/6 385/5/6 393/5/6
f 393/5/6 385/5/6 394/5/6
f 380/5/6 386/5/6 396/5/6
f 386/6/6 387/6/6 397/6/6
f 396/5/6 386/5/6 397/5/6
f 387/5/6 381/5/6 398/5/6
f 397/6/6 387/6/6 398/6/6
f 398/5/6 381/5/6 399/5/6
f 390/5/6 391/5/6 400/5/6
f 388/5/6 389/5/6 400/5/6
f 389/5/6 390/5/6 400/5/6
f 400/5/6 391/5/6 401/5/6
f 401/5/6 391/5/6 402/5/6
f 402/5/6 391/5/6 403/5/6
f 394/5/6 395/5/6 404/5/6
f 392/5/6 393/5/6 404/5/6
f 393/5/6 394/5/6 404/5/6
f 404/5/6 395/5/6 405/5/6
f 405/5/6 395/5/6 406/5/6
f 406/5/6 395/5/6 407/5/6
f 396/6/6 397/6/6 408/6/6
f 380/5/6 396/5/6 408/5/6
f 398/6/6 399/6/6 408/6/6
f 397/6/6 398/6/6 408/6/6
f 408/6/6 399/6/6 409/6/6
f 409/6/6 399/6/6 410/6/6
f 399/5/6 381/5/6 411/5/6
f 410/6/6 399/6/6 411/6/6
f 401/5/6 402/5/6 412/5/6
f 412/5/6 402/5/6 413/5/6
f 405/5/6 406/5/6 414/5/6
f 414/5/6 406/5/6 415/5/6
f 409/6/6 410/6/6 416/6/6
f 408/5/6 409/5/6 416/5/6
f 410/5/6 411/5/6 417/5/6
f 416/6/6 410/6/6 417/6/6
f 408/5/6 416/5/6 418/5/6
f 416/5/6 417/5/6 418/5/6
f 380/5/6 408/5/6 418/5/6
f 417/5/6 411/5/6 419/5/6
f 418/5/6 417/5/6 419/5/6
f 411/5/6 381/5/6 419/5/6
f 374/1/6 378/1/6 420/1/6
f 379/1/6 377/1/6 421/1/6
f 374/1/6 420/1/6 422/1/6
f 420/1/6 421/1/6 422/1/6
f 421/1/6 377/1/6 423/1/6
f 422/1/6 421/1/6 423/1/6
f 424/4/6 425/4/6 426/4/6
f 426/4/6 425/4/6 427/4/6
