# MagicaVoxel @ Ephtracy

# group
o 

# material
mtllib station.mtl
usemtl palette

# normals
vn -1 0 0
vn 1 0 0
vn 0 0 1
vn 0 0 -1
vn 0 -1 0
vn 0 1 0

# texcoords
vt 0.841797 0.5
vt 0.970703 0.5
vt 0.986328 0.5

# verts
v -1.1 0 1.1
v -1.1 0 -1.1
v -1.1 0.1 1.1
v -1.1 0.1 0.9
v -1.1 0.1 0.7
v -1.1 0.1 0.3
v -1.1 0.1 0.1
v -1.1 0.1 -0.0999999
v -1.1 0.1 -0.3
v -1.1 0.1 -0.7
v -1.1 0.1 -0.9
v -1.1 0.1 -1.1
v -1.1 0.8 0.7
v -1.1 0.8 0.3
v -1.1 0.8 -0.3
v -1.1 0.8 -0.7
v -1.1 1.1 0.7
v -1.1 1.1 0.3
v -1.1 1.1 -0.3
v -1.1 1.1 -0.7
v -1.1 1.2 0.9
v -1.1 1.2 0.1
v -1.1 1.2 -0.0999999
v -1.1 1.2 -0.9
v -1.1 1.5 1.3
v -1.1 1.5 -1.3
v -1.1 1.6 1.3
v -1.1 1.6 -1.3
v -1.1 1.7 1.3
v -1.1 1.7 -1.3
v -1.1 1.8 1.3
v -1.1 1.8 -1.3
v -0.9 0.1 1.1
v -0.9 0.1 1
v -0.9 0.1 -1
v -0.9 0.1 -1.1
v -0.9 1.5 1.1
v -0.9 1.5 1
v -0.9 1.5 -1
v -0.9 1.5 -1.1
v 0.6 0 1.1
v 0.6 0 -1.1
v 0.6 0.1 1.1
v 0.6 0.1 0.9
v 0.6 0.1 0.7
v 0.6 0.1 0.3
v 0.6 0.1 0.1
v 0.6 0.1 -0.0999999
v 0.6 0.1 -0.3
v 0.6 0.1 -0.7
v 0.6 0.1 -0.9
v 0.6 0.1 -1.1
v 0.6 0.8 0.7
v 0.6 0.8 0.3
v 0.6 0.9 -0.3
v 0.6 0.9 -0.7
v 0.6 1.1 0.7
v 0.6 1.1 0.3
v 0.6 1.1 -0.3
v 0.6 1.1 -0.7
v 0.6 1.2 0.9
v 0.6 1.2 0.1
v 0.6 1.2 -0.0999999
v 0.6 1.2 -0.9
v 0.8 0.1 1.1
v 0.8 0.1 1
v 0.8 0.1 -1
v 0.8 0.1 -1.1
v 0.8 1.5 1.1
v 0.8 1.5 1
v 0.8 1.5 -1
v 0.8 1.5 -1.1
v -0.8 0.1 1.1
v -0.8 0.1 1
v -0.8 0.1 -1
v -0.8 0.1 -1.1
v -0.8 1.5 1.1
v -0.8 1.5 1
v -0.8 1.5 -1
v -0.8 1.5 -1.1
v -0.6 0 1.1
v -0.6 0 -1.1
v -0.6 0.1 1.1
v -0.6 0.1 0.9
v -0.6 0.1 0.7
v -0.6 0.1 0.3
v -0.6 0.1 0.1
v -0.6 0.1 -0.0999999
v -0.6 0.1 -0.3
v -0.6 0.1 -0.7
v -0.6 0.1 -0.9
v -0.6 0.1 -1.1
v -0.6 0.8 0.7
v -0.6 0.8 0.3
v -0.6 0.8 -0.3
v -0.6 0.8 -0.7
v -0.6 1.1 0.7
v -0.6 1.1 0.3
v -0.6 1.1 -0.3
v -0.6 1.1 -0.7
v -0.6 1.2 0.9
v -0.6 1.2 0.1
v -0.6 1.2 -0.0999999
v -0.6 1.2 -0.9
v 0.9 0.1 1.1
v 0.9 0.1 1
v 0.9 0.1 -1
v 0.9 0.1 -1.1
v 0.9 1.5 1.1
v 0.9 1.5 1
v 0.9 1.5 -1
v 0.9 1.5 -1.1
v 1.1 0 1.1
v 1.1 0 -1.1
v 1.1 0.1 1.1
v 1.1 0.1 0.9
v 1.1 0.1 0.7
v 1.1 0.1 0.3
v 1.1 0.1 0.1
v 1.1 0.1 -0.0999999
v 1.1 0.1 -0.3
v 1.1 0.1 -0.7
v 1.1 0.1 -0.9
v 1.1 0.1 -1.1
v 1.1 0.8 0.7
v 1.1 0.8 0.3
v 1.1 0.9 -0.3
v 1.1 0.9 -0.7
v 1.1 1.1 0.7
v 1.1 1.1 0.3
v 1.1 1.1 -0.3
v 1.1 1.1 -0.7
v 1.1 1.2 0.9
v 1.1 1.2 0.1
v 1.1 1.2 -0.0999999
v 1.1 1.2 -0.9
v 1.1 1.5 1.3
v 1.1 1.5 -1.3
v 1.1 1.6 1.3
v 1.1 1.6 -1.3
v 1.1 1.7 1.3
v 1.1 1.7 -1.3
v 1.1 1.8 1.3
v 1.1 1.8 -1.3
v -1.1 1.5 1.3
v -1.1 1.6 1.3
v -1.1 1.7 1.3
v -1.1 1.8 1.3
v 1.1 1.5 1.3
v 1.1 1.6 1.3
v 1.1 1.7 1.3
v 1.1 1.8 1.3
v -1.1 0 1.1
v -1.1 0.1 1.1
v -0.9 0.1 1.1
v -0.9 1.5 1.1
v -0.8 0.1 1.1
v -0.8 1.5 1.1
v -0.6 0 1.1
v -0.6 0.1 1.1
v 0.6 0 1.1
v 0.6 0.1 1.1
v 0.8 0.1 1.1
v 0.8 1.5 1.1
v 0.9 0.1 1.1
v 0.9 1.5 1.1
v 1.1 0 1.1
v 1.1 0.1 1.1
v -1.1 0.1 0.9
v -1.1 1.2 0.9
v -0.6 0.1 0.9
v -0.6 1.2 0.9
v 0.6 0.1 0.9
v 0.6 1.2 0.9
v 1.1 0.1 0.9
v 1.1 1.2 0.9
v -1.1 0.8 0.3
v -1.1 1.1 0.3
v -0.6 0.8 0.3
v -0.6 1.1 0.3
v 0.6 0.8 0.3
v 0.6 1.1 0.3
v 1.1 0.8 0.3
v 1.1 1.1 0.3
v -1.1 0.1 -0.0999999
v -1.1 1.2 -0.0999999
v -0.6 0.1 -0.0999999
v -0.6 1.2 -0.0999999
v 0.6 0.1 -0.0999999
v 0.6 1.2 -0.0999999
v 1.1 0.1 -0.0999999
v 1.1 1.2 -0.0999999
v -1.1 0.8 -0.7
v -1.1 1.1 -0.7
v -0.6 0.8 -0.7
v -0.6 1.1 -0.7
v 0.6 0.9 -0.7
v 0.6 1.1 -0.7
v 1.1 0.9 -0.7
v 1.1 1.1 -0.7
v -0.9 0.1 -1
v -0.9 1.5 -1
v -0.8 0.1 -1
v -0.8 1.5 -1
v 0.8 0.1 -1
v 0.8 1.5 -1
v 0.9 0.1 -1
v 0.9 1.5 -1
v -0.9 0.1 1
v -0.9 1.5 1
v -0.8 0.1 1
v -0.8 1.5 1
v 0.8 0.1 1
v 0.8 1.5 1
v 0.9 0.1 1
v 0.9 1.5 1
v -1.1 0.8 0.7
v -1.1 1.1 0.7
v -0.6 0.8 0.7
v -0.6 1.1 0.7
v 0.6 0.8 0.7
v 0.6 1.1 0.7
v 1.1 0.8 0.7
v 1.1 1.1 0.7
v -1.1 0.1 0.1
v -1.1 1.2 0.1
v -0.6 0.1 0.1
v -0.6 1.2 0.1
v 0.6 0.1 0.1
v 0.6 1.2 0.1
v 1.1 0.1 0.1
v 1.1 1.2 0.1
v -1.1 0.8 -0.3
v -1.1 1.1 -0.3
v -0.6 0.8 -0.3
v -0.6 1.1 -0.3
v 0.6 0.9 -0.3
v 0.6 1.1 -0.3
v 1.1 0.9 -0.3
v 1.1 1.1 -0.3
v -1.1 0.1 -0.9
v -1.1 1.2 -0.9
v -0.6 0.1 -0.9
v -0.6 1.2 -0.9
v 0.6 0.1 -0.9
v 0.6 1.2 -0.9
v 1.1 0.1 -0.9
v 1.1 1.2 -0.9
v -1.1 0 -1.1
v -1.1 0.1 -1.1
v -0.9 0.1 -1.1
v -0.9 1.5 -1.1
v -0.8 0.1 -1.1
v -0.8 1.5 -1.1
v -0.6 0 -1.1
v -0.6 0.1 -1.1
v 0.6 0 -1.1
v 0.6 0.1 -1.1
v 0.8 0.1 -1.1
v 0.8 1.5 -1.1
v 0.9 0.1 -1.1
v 0.9 1.5 -1.1
v 1.1 0 -1.1
v 1.1 0.1 -1.1
v -1.1 1.5 -1.3
v -1.1 1.6 -1.3
v -1.1 1.7 -1.3
v -1.1 1.8 -1.3
v 1.1 1.5 -1.3
v 1.1 1.6 -1.3
v 1.1 1.7 -1.3
v 1.1 1.8 -1.3
v -1.1 0 1.1
v -0.6 0 1.1
v 0.6 0 1.1
v 1.1 0 1.1
v -1.1 0 -1.1
v -0.6 0 -1.1
v 0.6 0 -1.1
v 1.1 0 -1.1
v -1.1 1.1 0.7
v -0.6 1.1 0.7
v 0.6 1.1 0.7
v 1.1 1.1 0.7
v -1.1 1.1 0.3
v -0.6 1.1 0.3
v 0.6 1.1 0.3
v 1.1 1.1 0.3
v -1.1 1.1 -0.3
v -0.6 1.1 -0.3
v 0.6 1.1 -0.3
v 1.1 1.1 -0.3
v -1.1 1.1 -0.7
v -0.6 1.1 -0.7
v 0.6 1.1 -0.7
v 1.1 1.1 -0.7
v -1.1 1.5 1.3
v 1.1 1.5 1.3
v -0.9 1.5 1.1
v -0.8 1.5 1.1
v 0.8 1.5 1.1
v 0.9 1.5 1.1
v -0.9 1.5 1
v -0.8 1.5 1
v 0.8 1.5 1
v 0.9 1.5 1
v -0.9 1.5 -1
v -0.8 1.5 -1
v 0.8 1.5 -1
v 0.9 1.5 -1
v -0.9 1.5 -1.1
v -0.8 1.5 -1.1
v 0.8 1.5 -1.1
v 0.9 1.5 -1.1
v -1.1 1.5 -1.3
v 1.1 1.5 -1.3
v -1.1 0.1 1.1
v -0.9 0.1 1.1
v -0.8 0.1 1.1
v -0.6 0.1 1.1
v 0.6 0.1 1.1
v 0.8 0.1 1.1
v 0.9 0.1 1.1
v 1.1 0.1 1.1
v -0.9 0.1 1
v -0.8 0.1 1
v 0.8 0.1 1
v 0.9 0.1 1
v -1.1 0.1 0.9
v -0.6 0.1 0.9
v 0.6 0.1 0.9
v 1.1 0.1 0.9
v -1.1 0.1 0.1
v -0.6 0.1 0.1
v 0.6 0.1 0.1
v 1.1 0.1 0.1
v -1.1 0.1 -0.0999999
v -0.6 0.1 -0.0999999
v 0.6 0.1 -0.0999999
v 1.1 0.1 -0.0999999
v -1.1 0.1 -0.9
v -0.6 0.1 -0.9
v 0.6 0.1 -0.9
v 1.1 0.1 -0.9
v -0.9 0.1 -1
v -0.8 0.1 -1
v 0.8 0.1 -1
v 0.9 0.1 -1
v -1.1 0.1 -1.1
v -0.9 0.1 -1.1
v -0.8 0.1 -1.1
v -0.6 0.1 -1.1
v 0.6 0.1 -1.1
v 0.8 0.1 -1.1
v 0.9 0.1 -1.1
v 1.1 0.1 -1.1
v -1.1 0.8 0.7
v -0.6 0.8 0.7
v 0.6 0.8 0.7
v 1.1 0.8 0.7
v -1.1 0.8 0.3
v -0.6 0.8 0.3
v 0.6 0.8 0.3
v 1.1 0.8 0.3
v -1.1 0.8 -0.3
v -0.6 0.8 -0.3
v -1.1 0.8 -0.7
v -0.6 0.8 -0.7
v 0.6 0.9 -0.3
v 1.1 0.9 -0.3
v 0.6 0.9 -0.7
v 1.1 0.9 -0.7
v -1.1 1.2 0.9
v -0.6 1.2 0.9
v 0.6 1.2 0.9
v 1.1 1.2 0.9
v -1.1 1.2 0.1
v -0.6 1.2 0.1
v 0.6 1.2 0.1
v 1.1 1.2 0.1
v -1.1 1.2 -0.0999999
v -0.6 1.2 -0.0999999
v 0.6 1.2 -0.0999999
v 1.1 1.2 -0.0999999
v -1.1 1.2 -0.9
v -0.6 1.2 -0.9
v 0.6 1.2 -0.9
v 1.1 1.2 -0.9
v -1.1 1.8 1.3
v 1.1 1.8 1.3
v -1.1 1.8 -1.3
v 1.1 1.8 -1.3

# faces
f 3/3/1 2/3/1 1/3/1
f 4/3/1 2/3/1 3/3/1
f 5/3/1 2/3/1 4/3/1
f 6/3/1 2/3/1 5/3/1
f 7/3/1 2/3/1 6/3/1
f 8/3/1 2/3/1 7/3/1
f 9/3/1 2/3/1 8/3/1
f 10/3/1 2/3/1 9/3/1
f 11/3/1 2/3/1 10/3/1
f 12/3/1 2/3/1 11/3/1
f 13/2/1 5/2/1 4/2/1
f 13/1/1 6/1/1 5/1/1
f 14/2/1 7/2/1 6/2/1
f 14/1/1 6/1/1 13/1/1
f 15/1/1 10/1/1 9/1/1
f 15/2/1 9/2/1 8/2/1
f 16/2/1 11/2/1 10/2/1
f 16/1/1 10/1/1 15/1/1
f 17/2/1 13/2/1 4/2/1
f 18/2/1 7/2/1 14/2/1
f 19/2/1 15/2/1 8/2/1
f 20/2/1 11/2/1 16/2/1
f 21/2/1 18/2/1 17/2/1
f 21/2/1 17/2/1 4/2/1
f 22/2/1 7/2/1 18/2/1
f 22/2/1 18/2/1 21/2/1
f 23/2/1 20/2/1 19/2/1
f 23/2/1 19/2/1 8/2/1
f 24/2/1 11/2/1 20/2/1
f 24/2/1 20/2/1 23/2/1
f 27/1/1 26/1/1 25/1/1
f 28/1/1 26/1/1 27/1/1
f 29/2/1 28/2/1 27/2/1
f 30/2/1 28/2/1 29/2/1
f 31/1/1 30/1/1 29/1/1
f 32/1/1 30/1/1 31/1/1
f 37/2/1 34/2/1 33/2/1
f 38/2/1 34/2/1 37/2/1
f 39/2/1 36/2/1 35/2/1
f 40/2/1 36/2/1 39/2/1
f 43/3/1 42/3/1 41/3/1
f 44/3/1 42/3/1 43/3/1
f 45/3/1 42/3/1 44/3/1
f 46/3/1 42/3/1 45/3/1
f 47/3/1 42/3/1 46/3/1
f 48/3/1 42/3/1 47/3/1
f 49/3/1 42/3/1 48/3/1
f 50/3/1 42/3/1 49/3/1
f 51/3/1 42/3/1 50/3/1
f 52/3/1 42/3/1 51/3/1
f 53/2/1 45/2/1 44/2/1
f 53/1/1 46/1/1 45/1/1
f 54/2/1 47/2/1 46/2/1
f 54/1/1 46/1/1 53/1/1
f 55/1/1 50/1/1 49/1/1
f 55/2/1 49/2/1 48/2/1
f 56/2/1 51/2/1 50/2/1
f 56/1/1 50/1/1 55/1/1
f 57/2/1 53/2/1 44/2/1
f 58/2/1 47/2/1 54/2/1
f 59/2/1 55/2/1 48/2/1
f 60/2/1 51/2/1 56/2/1
f 61/2/1 58/2/1 57/2/1
f 61/2/1 57/2/1 44/2/1
f 62/2/1 47/2/1 58/2/1
f 62/2/1 58/2/1 61/2/1
f 63/2/1 60/2/1 59/2/1
f 63/2/1 59/2/1 48/2/1
f 64/2/1 51/2/1 60/2/1
f 64/2/1 60/2/1 63/2/1
f 69/2/1 66/2/1 65/2/1
f 70/2/1 66/2/1 69/2/1
f 71/2/1 68/2/1 67/2/1
f 72/2/1 68/2/1 71/2/1
f 73/2/2 74/2/2 77/2/2
f 77/2/2 74/2/2 78/2/2
f 75/2/2 76/2/2 79/2/2
f 79/2/2 76/2/2 80/2/2
f 81/3/2 82/3/2 83/3/2
f 83/3/2 82/3/2 84/3/2
f 84/3/2 82/3/2 85/3/2
f 85/3/2 82/3/2 86/3/2
f 86/3/2 82/3/2 87/3/2
f 87/3/2 82/3/2 88/3/2
f 88/3/2 82/3/2 89/3/2
f 89/3/2 82/3/2 90/3/2
f 90/3/2 82/3/2 91/3/2
f 91/3/2 82/3/2 92/3/2
f 84/2/2 85/2/2 93/2/2
f 85/1/2 86/1/2 93/1/2
f 86/2/2 87/2/2 94/2/2
f 93/1/2 86/1/2 94/1/2
f 89/1/2 90/1/2 95/1/2
f 88/2/2 89/2/2 95/2/2
f 90/2/2 91/2/2 96/2/2
f 95/1/2 90/1/2 96/1/2
f 84/2/2 93/2/2 97/2/2
f 94/2/2 87/2/2 98/2/2
f 88/2/2 95/2/2 99/2/2
f 96/2/2 91/2/2 100/2/2
f 97/2/2 98/2/2 101/2/2
f 84/2/2 97/2/2 101/2/2
f 98/2/2 87/2/2 102/2/2
f 101/2/2 98/2/2 102/2/2
f 99/2/2 100/2/2 103/2/2
f 88/2/2 99/2/2 103/2/2
f 100/2/2 91/2/2 104/2/2
f 103/2/2 100/2/2 104/2/2
f 105/2/2 106/2/2 109/2/2
f 109/2/2 106/2/2 110/2/2
f 107/2/2 108/2/2 111/2/2
f 111/2/2 108/2/2 112/2/2
f 113/3/2 114/3/2 115/3/2
f 115/3/2 114/3/2 116/3/2
f 116/3/2 114/3/2 117/3/2
f 117/3/2 114/3/2 118/3/2
f 118/3/2 114/3/2 119/3/2
f 119/3/2 114/3/2 120/3/2
f 120/3/2 114/3/2 121/3/2
f 121/3/2 114/3/2 122/3/2
f 122/3/2 114/3/2 123/3/2
f 123/3/2 114/3/2 124/3/2
f 116/2/2 117/2/2 125/2/2
f 117/1/2 118/1/2 125/1/2
f 118/2/2 119/2/2 126/2/2
f 125/1/2 118/1/2 126/1/2
f 121/1/2 122/1/2 127/1/2
f 120/2/2 121/2/2 127/2/2
f 122/2/2 123/2/2 128/2/2
f 127/1/2 122/1/2 128/1/2
f 116/2/2 125/2/2 129/2/2
f 126/2/2 119/2/2 130/2/2
f 120/2/2 127/2/2 131/2/2
f 128/2/2 123/2/2 132/2/2
f 129/2/2 130/2/2 133/2/2
f 116/2/2 129/2/2 133/2/2
f 130/2/2 119/2/2 134/2/2
f 133/2/2 130/2/2 134/2/2
f 131/2/2 132/2/2 135/2/2
f 120/2/2 131/2/2 135/2/2
f 132/2/2 123/2/2 136/2/2
f 135/2/2 132/2/2 136/2/2
f 137/1/2 138/1/2 139/1/2
f 139/1/2 138/1/2 140/1/2
f 139/2/2 140/2/2 141/2/2
f 141/2/2 140/2/2 142/2/2
f 141/1/2 142/1/2 143/1/2
f 143/1/2 142/1/2 144/1/2
f 149/1/3 146/1/3 145/1/3
f 150/2/3 147/2/3 146/2/3
f 150/1/3 146/1/3 149/1/3
f 151/1/3 148/1/3 147/1/3
f 151/2/3 147/2/3 150/2/3
f 152/1/3 148/1/3 151/1/3
f 155/3/3 154/3/3 153/3/3
f 157/3/3 155/3/3 153/3/3
f 157/2/3 156/2/3 155/2/3
f 158/2/3 156/2/3 157/2/3
f 159/3/3 157/3/3 153/3/3
f 160/3/3 157/3/3 159/3/3
f 163/3/3 162/3/3 161/3/3
f 165/3/3 163/3/3 161/3/3
f 165/2/3 164/2/3 163/2/3
f 166/2/3 164/2/3 165/2/3
f 167/3/3 165/3/3 161/3/3
f 168/3/3 165/3/3 167/3/3
f 171/2/3 170/2/3 169/2/3
f 172/2/3 170/2/3 171/2/3
f 175/2/3 174/2/3 173/2/3
f 176/2/3 174/2/3 175/2/3
f 179/2/3 178/2/3 177/2/3
f 180/2/3 178/2/3 179/2/3
f 183/2/3 182/2/3 181/2/3
f 184/2/3 182/2/3 183/2/3
f 187/2/3 186/2/3 185/2/3
f 188/2/3 186/2/3 187/2/3
f 191/2/3 190/2/3 189/2/3
f 192/2/3 190/2/3 191/2/3
f 195/2/3 194/2/3 193/2/3
f 196/2/3 194/2/3 195/2/3
f 199/2/3 198/2/3 197/2/3
f 200/2/3 198/2/3 199/2/3
f 203/2/3 202/2/3 201/2/3
f 204/2/3 202/2/3 203/2/3
f 207/2/3 206/2/3 205/2/3
f 208/2/3 206/2/3 207/2/3
f 209/2/4 210/2/4 211/2/4
f 211/2/4 210/2/4 212/2/4
f 213/2/4 214/2/4 215/2/4
f 215/2/4 214/2/4 216/2/4
f 217/2/4 218/2/4 219/2/4
f 219/2/4 218/2/4 220/2/4
f 221/2/4 222/2/4 223/2/4
f 223/2/4 222/2/4 224/2/4
f 225/2/4 226/2/4 227/2/4
f 227/2/4 226/2/4 228/2/4
f 229/2/4 230/2/4 231/2/4
f 231/2/4 230/2/4 232/2/4
f 233/2/4 234/2/4 235/2/4
f 235/2/4 234/2/4 236/2/4
f 237/2/4 238/2/4 239/2/4
f 239/2/4 238/2/4 240/2/4
f 241/2/4 242/2/4 243/2/4
f 243/2/4 242/2/4 244/2/4
f 245/2/4 246/2/4 247/2/4
f 247/2/4 246/2/4 248/2/4
f 249/3/4 250/3/4 251/3/4
f 249/3/4 251/3/4 253/3/4
f 251/2/4 252/2/4 253/2/4
f 253/2/4 252/2/4 254/2/4
f 249/3/4 253/3/4 255/3/4
f 255/3/4 253/3/4 256/3/4
f 257/3/4 258/3/4 259/3/4
f 257/3/4 259/3/4 261/3/4
f 259/2/4 260/2/4 261/2/4
f 261/2/4 260/2/4 262/2/4
f 257/3/4 261/3/4 263/3/4
f 263/3/4 261/3/4 264/3/4
f 265/1/4 266/1/4 269/1/4
f 266/2/4 267/2/4 270/2/4
f 269/1/4 266/1/4 270/1/4
f 267/1/4 268/1/4 271/1/4
f 270/2/4 267/2/4 271/2/4
f 271/1/4 268/1/4 272/1/4
f 277/3/5 274/3/5 273/3/5
f 278/3/5 274/3/5 277/3/5
f 279/3/5 276/3/5 275/3/5
f 280/3/5 276/3/5 279/3/5
f 285/2/5 282/2/5 281/2/5
f 286/2/5 282/2/5 285/2/5
f 287/2/5 284/2/5 283/2/5
f 288/2/5 284/2/5 287/2/5
f 293/2/5 290/2/5 289/2/5
f 294/2/5 290/2/5 293/2/5
f 295/2/5 292/2/5 291/2/5
f 296/2/5 292/2/5 295/2/5
f 299/1/5 298/1/5 297/1/5
f 300/1/5 298/1/5 299/1/5
f 301/1/5 298/1/5 300/1/5
f 302/1/5 298/1/5 301/1/5
f 303/1/5 299/1/5 297/1/5
f 304/1/5 301/1/5 300/1/5
f 305/1/5 301/1/5 304/1/5
f 306/1/5 298/1/5 302/1/5
f 307/1/5 305/1/5 304/1/5
f 307/1/5 306/1/5 305/1/5
f 307/1/5 303/1/5 297/1/5
f 307/1/5 304/1/5 303/1/5
f 308/1/5 306/1/5 307/1/5
f 309/1/5 306/1/5 308/1/5
f 310/1/5 298/1/5 306/1/5
f 310/1/5 306/1/5 309/1/5
f 311/1/5 307/1/5 297/1/5
f 312/1/5 309/1/5 308/1/5
f 313/1/5 309/1/5 312/1/5
f 314/1/5 298/1/5 310/1/5
f 315/1/5 311/1/5 297/1/5
f 315/1/5 314/1/5 313/1/5
f 315/1/5 313/1/5 312/1/5
f 315/1/5 312/1/5 311/1/5
f 316/1/5 298/1/5 314/1/5
f 316/1/5 314/1/5 315/1/5
f 317/3/6 318/3/6 325/3/6
f 319/3/6 320/3/6 326/3/6
f 321/3/6 322/3/6 327/3/6
f 323/3/6 324/3/6 328/3/6
f 317/3/6 325/3/6 329/3/6
f 325/3/6 326/3/6 329/3/6
f 326/3/6 320/3/6 330/3/6
f 329/3/6 326/3/6 330/3/6
f 321/3/6 327/3/6 331/3/6
f 327/3/6 328/3/6 331/3/6
f 328/3/6 324/3/6 332/3/6
f 331/3/6 328/3/6 332/3/6
f 333/3/6 334/3/6 337/3/6
f 337/3/6 334/3/6 338/3/6
f 335/3/6 336/3/6 339/3/6
f 339/3/6 336/3/6 340/3/6
f 341/3/6 342/3/6 345/3/6
f 345/3/6 342/3/6 346/3/6
f 343/3/6 344/3/6 347/3/6
f 347/3/6 344/3/6 348/3/6
f 341/3/6 345/3/6 349/3/6
f 349/3/6 345/3/6 350/3/6
f 346/3/6 342/3/6 351/3/6
f 351/3/6 342/3/6 352/3/6
f 343/3/6 347/3/6 353/3/6
f 353/3/6 347/3/6 354/3/6
f 348/3/6 344/3/6 355/3/6
f 355/3/6 344/3/6 356/3/6
f 357/1/6 358/1/6 361/1/6
f 361/1/6 358/1/6 362/1/6
f 359/1/6 360/1/6 363/1/6
f 363/1/6 360/1/6 364/1/6
f 365/1/6 366/1/6 367/1/6
f 367/1/6 366/1/6 368/1/6
f 369/1/6 370/1/6 371/1/6
f 371/1/6 370/1/6 372/1/6
f 373/2/6 374/2/6 377/2/6
f 377/2/6 374/2/6 378/2/6
f 375/2/6 376/2/6 379/2/6
f 379/2/6 376/2/6 380/2/6
f 381/2/6 382/2/6 385/2/6
f 385/2/6 382/2/6 386/2/6
f 383/2/6 384/2/6 387/2/6
f 387/2/6 384/2/6 388/2/6
f 389/1/6 390/1/6 391/1/6
f 391/1/6 390/1/6 392/1/6
